<?xml version="1.0" encoding="utf-8" standalone="no"?>
<!DOCTYPE svg PUBLIC "-//W3C//DTD SVG 1.1//EN"
  "http://www.w3.org/Graphics/SVG/1.1/DTD/svg11.dtd">
<!-- Created with matplotlib (https://matplotlib.org/) -->
<svg height="576pt" version="1.1" viewBox="0 0 576 576" width="576pt" xmlns="http://www.w3.org/2000/svg" xmlns:xlink="http://www.w3.org/1999/xlink">
 <defs>
  <style type="text/css">
*{stroke-linecap:butt;stroke-linejoin:round;}
  </style>
 </defs>
 <g id="figure_1">
  <g id="patch_1">
   <path d="M 0 576 
L 576 576 
L 576 0 
L 0 0 
z
" style="fill:#ffffff;"/>
  </g>
  <g id="axes_1">
   <g id="patch_2">
    <path d="M 72 512.64 
L 518.4 512.64 
L 518.4 69.12 
L 72 69.12 
z
" style="fill:#ffffff;"/>
   </g>
   <g id="patch_3">
    <path clip-path="url(#pc5c63559a1)" d="M 92.290909 512.64 
L 93.418965 512.64 
L 93.418965 121.925218 
L 92.290909 121.925218 
z
" style="fill:#1f77b4;opacity:0.4;"/>
   </g>
   <g id="patch_4">
    <path clip-path="url(#pc5c63559a1)" d="M 93.700979 512.64 
L 94.829035 512.64 
L 94.829035 136.935327 
L 93.700979 136.935327 
z
" style="fill:#1f77b4;opacity:0.4;"/>
   </g>
   <g id="patch_5">
    <path clip-path="url(#pc5c63559a1)" d="M 95.111049 512.64 
L 96.239105 512.64 
L 96.239105 139.176561 
L 95.111049 139.176561 
z
" style="fill:#1f77b4;opacity:0.4;"/>
   </g>
   <g id="patch_6">
    <path clip-path="url(#pc5c63559a1)" d="M 96.521119 512.64 
L 97.649176 512.64 
L 97.649176 137.482157 
L 96.521119 137.482157 
z
" style="fill:#1f77b4;opacity:0.4;"/>
   </g>
   <g id="patch_7">
    <path clip-path="url(#pc5c63559a1)" d="M 97.93119 512.64 
L 99.059246 512.64 
L 99.059246 133.499001 
L 97.93119 133.499001 
z
" style="fill:#1f77b4;opacity:0.4;"/>
   </g>
   <g id="patch_8">
    <path clip-path="url(#pc5c63559a1)" d="M 99.34126 512.64 
L 100.469316 512.64 
L 100.469316 135.047194 
L 99.34126 135.047194 
z
" style="fill:#1f77b4;opacity:0.4;"/>
   </g>
   <g id="patch_9">
    <path clip-path="url(#pc5c63559a1)" d="M 100.75133 512.64 
L 101.879386 512.64 
L 101.879386 133.916824 
L 100.75133 133.916824 
z
" style="fill:#1f77b4;opacity:0.4;"/>
   </g>
   <g id="patch_10">
    <path clip-path="url(#pc5c63559a1)" d="M 102.1614 512.64 
L 103.289456 512.64 
L 103.289456 141.990034 
L 102.1614 141.990034 
z
" style="fill:#1f77b4;opacity:0.4;"/>
   </g>
   <g id="patch_11">
    <path clip-path="url(#pc5c63559a1)" d="M 103.57147 512.64 
L 104.699526 512.64 
L 104.699526 143.986136 
L 103.57147 143.986136 
z
" style="fill:#1f77b4;opacity:0.4;"/>
   </g>
   <g id="patch_12">
    <path clip-path="url(#pc5c63559a1)" d="M 104.98154 512.64 
L 106.109596 512.64 
L 106.109596 145.820472 
L 104.98154 145.820472 
z
" style="fill:#1f77b4;opacity:0.4;"/>
   </g>
   <g id="patch_13">
    <path clip-path="url(#pc5c63559a1)" d="M 106.39161 512.64 
L 107.519666 512.64 
L 107.519666 150.25726 
L 106.39161 150.25726 
z
" style="fill:#1f77b4;opacity:0.4;"/>
   </g>
   <g id="patch_14">
    <path clip-path="url(#pc5c63559a1)" d="M 107.80168 512.64 
L 108.929737 512.64 
L 108.929737 159.112079 
L 107.80168 159.112079 
z
" style="fill:#1f77b4;opacity:0.4;"/>
   </g>
   <g id="patch_15">
    <path clip-path="url(#pc5c63559a1)" d="M 109.211751 512.64 
L 110.339807 512.64 
L 110.339807 159.009739 
L 109.211751 159.009739 
z
" style="fill:#1f77b4;opacity:0.4;"/>
   </g>
   <g id="patch_16">
    <path clip-path="url(#pc5c63559a1)" d="M 110.621821 512.64 
L 111.749877 512.64 
L 111.749877 163.764887 
L 110.621821 163.764887 
z
" style="fill:#1f77b4;opacity:0.4;"/>
   </g>
   <g id="patch_17">
    <path clip-path="url(#pc5c63559a1)" d="M 112.031891 512.64 
L 113.159947 512.64 
L 113.159947 166.954805 
L 112.031891 166.954805 
z
" style="fill:#1f77b4;opacity:0.4;"/>
   </g>
   <g id="patch_18">
    <path clip-path="url(#pc5c63559a1)" d="M 113.441961 512.64 
L 114.570017 512.64 
L 114.570017 171.202923 
L 113.441961 171.202923 
z
" style="fill:#1f77b4;opacity:0.4;"/>
   </g>
   <g id="patch_19">
    <path clip-path="url(#pc5c63559a1)" d="M 114.852031 512.64 
L 115.980087 512.64 
L 115.980087 169.920971 
L 114.852031 169.920971 
z
" style="fill:#1f77b4;opacity:0.4;"/>
   </g>
   <g id="patch_20">
    <path clip-path="url(#pc5c63559a1)" d="M 116.262101 512.64 
L 117.390157 512.64 
L 117.390157 168.007475 
L 116.262101 168.007475 
z
" style="fill:#1f77b4;opacity:0.4;"/>
   </g>
   <g id="patch_21">
    <path clip-path="url(#pc5c63559a1)" d="M 117.672171 512.64 
L 118.800227 512.64 
L 118.800227 169.9156 
L 117.672171 169.9156 
z
" style="fill:#1f77b4;opacity:0.4;"/>
   </g>
   <g id="patch_22">
    <path clip-path="url(#pc5c63559a1)" d="M 119.082241 512.64 
L 120.210298 512.64 
L 120.210298 170.702479 
L 119.082241 170.702479 
z
" style="fill:#1f77b4;opacity:0.4;"/>
   </g>
   <g id="patch_23">
    <path clip-path="url(#pc5c63559a1)" d="M 120.492312 512.64 
L 121.620368 512.64 
L 121.620368 166.720397 
L 120.492312 166.720397 
z
" style="fill:#1f77b4;opacity:0.4;"/>
   </g>
   <g id="patch_24">
    <path clip-path="url(#pc5c63559a1)" d="M 121.902382 512.64 
L 123.030438 512.64 
L 123.030438 166.306166 
L 121.902382 166.306166 
z
" style="fill:#1f77b4;opacity:0.4;"/>
   </g>
   <g id="patch_25">
    <path clip-path="url(#pc5c63559a1)" d="M 123.312452 512.64 
L 124.440508 512.64 
L 124.440508 168.253901 
L 123.312452 168.253901 
z
" style="fill:#1f77b4;opacity:0.4;"/>
   </g>
   <g id="patch_26">
    <path clip-path="url(#pc5c63559a1)" d="M 124.722522 512.64 
L 125.850578 512.64 
L 125.850578 166.236129 
L 124.722522 166.236129 
z
" style="fill:#1f77b4;opacity:0.4;"/>
   </g>
   <g id="patch_27">
    <path clip-path="url(#pc5c63559a1)" d="M 126.132592 512.64 
L 127.260648 512.64 
L 127.260648 162.826785 
L 126.132592 162.826785 
z
" style="fill:#1f77b4;opacity:0.4;"/>
   </g>
   <g id="patch_28">
    <path clip-path="url(#pc5c63559a1)" d="M 127.542662 512.64 
L 128.670718 512.64 
L 128.670718 159.337501 
L 127.542662 159.337501 
z
" style="fill:#1f77b4;opacity:0.4;"/>
   </g>
   <g id="patch_29">
    <path clip-path="url(#pc5c63559a1)" d="M 128.952732 512.64 
L 130.080788 512.64 
L 130.080788 157.964233 
L 128.952732 157.964233 
z
" style="fill:#1f77b4;opacity:0.4;"/>
   </g>
   <g id="patch_30">
    <path clip-path="url(#pc5c63559a1)" d="M 130.362802 512.64 
L 131.490859 512.64 
L 131.490859 158.003707 
L 130.362802 158.003707 
z
" style="fill:#1f77b4;opacity:0.4;"/>
   </g>
   <g id="patch_31">
    <path clip-path="url(#pc5c63559a1)" d="M 131.772873 512.64 
L 132.900929 512.64 
L 132.900929 161.830167 
L 131.772873 161.830167 
z
" style="fill:#1f77b4;opacity:0.4;"/>
   </g>
   <g id="patch_32">
    <path clip-path="url(#pc5c63559a1)" d="M 133.182943 512.64 
L 134.310999 512.64 
L 134.310999 161.281103 
L 133.182943 161.281103 
z
" style="fill:#1f77b4;opacity:0.4;"/>
   </g>
   <g id="patch_33">
    <path clip-path="url(#pc5c63559a1)" d="M 134.593013 512.64 
L 135.721069 512.64 
L 135.721069 156.754106 
L 134.593013 156.754106 
z
" style="fill:#1f77b4;opacity:0.4;"/>
   </g>
   <g id="patch_34">
    <path clip-path="url(#pc5c63559a1)" d="M 136.003083 512.64 
L 137.131139 512.64 
L 137.131139 153.560929 
L 136.003083 153.560929 
z
" style="fill:#1f77b4;opacity:0.4;"/>
   </g>
   <g id="patch_35">
    <path clip-path="url(#pc5c63559a1)" d="M 137.413153 512.64 
L 138.541209 512.64 
L 138.541209 154.451878 
L 137.413153 154.451878 
z
" style="fill:#1f77b4;opacity:0.4;"/>
   </g>
   <g id="patch_36">
    <path clip-path="url(#pc5c63559a1)" d="M 138.823223 512.64 
L 139.951279 512.64 
L 139.951279 152.987977 
L 138.823223 152.987977 
z
" style="fill:#1f77b4;opacity:0.4;"/>
   </g>
   <g id="patch_37">
    <path clip-path="url(#pc5c63559a1)" d="M 140.233293 512.64 
L 141.361349 512.64 
L 141.361349 156.333059 
L 140.233293 156.333059 
z
" style="fill:#1f77b4;opacity:0.4;"/>
   </g>
   <g id="patch_38">
    <path clip-path="url(#pc5c63559a1)" d="M 141.643363 512.64 
L 142.77142 512.64 
L 142.77142 152.012144 
L 141.643363 152.012144 
z
" style="fill:#1f77b4;opacity:0.4;"/>
   </g>
   <g id="patch_39">
    <path clip-path="url(#pc5c63559a1)" d="M 143.053434 512.64 
L 144.18149 512.64 
L 144.18149 153.657531 
L 143.053434 153.657531 
z
" style="fill:#1f77b4;opacity:0.4;"/>
   </g>
   <g id="patch_40">
    <path clip-path="url(#pc5c63559a1)" d="M 144.463504 512.64 
L 145.59156 512.64 
L 145.59156 152.683811 
L 144.463504 152.683811 
z
" style="fill:#1f77b4;opacity:0.4;"/>
   </g>
   <g id="patch_41">
    <path clip-path="url(#pc5c63559a1)" d="M 145.873574 512.64 
L 147.00163 512.64 
L 147.00163 150.252132 
L 145.873574 150.252132 
z
" style="fill:#1f77b4;opacity:0.4;"/>
   </g>
   <g id="patch_42">
    <path clip-path="url(#pc5c63559a1)" d="M 147.283644 512.64 
L 148.4117 512.64 
L 148.4117 148.463862 
L 147.283644 148.463862 
z
" style="fill:#1f77b4;opacity:0.4;"/>
   </g>
   <g id="patch_43">
    <path clip-path="url(#pc5c63559a1)" d="M 148.693714 512.64 
L 149.82177 512.64 
L 149.82177 146.830738 
L 148.693714 146.830738 
z
" style="fill:#1f77b4;opacity:0.4;"/>
   </g>
   <g id="patch_44">
    <path clip-path="url(#pc5c63559a1)" d="M 150.103784 512.64 
L 151.23184 512.64 
L 151.23184 151.19088 
L 150.103784 151.19088 
z
" style="fill:#1f77b4;opacity:0.4;"/>
   </g>
   <g id="patch_45">
    <path clip-path="url(#pc5c63559a1)" d="M 151.513854 512.64 
L 152.64191 512.64 
L 152.64191 155.843353 
L 151.513854 155.843353 
z
" style="fill:#1f77b4;opacity:0.4;"/>
   </g>
   <g id="patch_46">
    <path clip-path="url(#pc5c63559a1)" d="M 152.923924 512.64 
L 154.051981 512.64 
L 154.051981 151.191872 
L 152.923924 151.191872 
z
" style="fill:#1f77b4;opacity:0.4;"/>
   </g>
   <g id="patch_47">
    <path clip-path="url(#pc5c63559a1)" d="M 154.333995 512.64 
L 155.462051 512.64 
L 155.462051 153.698139 
L 154.333995 153.698139 
z
" style="fill:#1f77b4;opacity:0.4;"/>
   </g>
   <g id="patch_48">
    <path clip-path="url(#pc5c63559a1)" d="M 155.744065 512.64 
L 156.872121 512.64 
L 156.872121 154.146856 
L 155.744065 154.146856 
z
" style="fill:#1f77b4;opacity:0.4;"/>
   </g>
   <g id="patch_49">
    <path clip-path="url(#pc5c63559a1)" d="M 157.154135 512.64 
L 158.282191 512.64 
L 158.282191 158.333636 
L 157.154135 158.333636 
z
" style="fill:#1f77b4;opacity:0.4;"/>
   </g>
   <g id="patch_50">
    <path clip-path="url(#pc5c63559a1)" d="M 158.564205 512.64 
L 159.692261 512.64 
L 159.692261 156.416262 
L 158.564205 156.416262 
z
" style="fill:#1f77b4;opacity:0.4;"/>
   </g>
   <g id="patch_51">
    <path clip-path="url(#pc5c63559a1)" d="M 159.974275 512.64 
L 161.102331 512.64 
L 161.102331 153.256285 
L 159.974275 153.256285 
z
" style="fill:#1f77b4;opacity:0.4;"/>
   </g>
   <g id="patch_52">
    <path clip-path="url(#pc5c63559a1)" d="M 161.384345 512.64 
L 162.512401 512.64 
L 162.512401 155.551968 
L 161.384345 155.551968 
z
" style="fill:#1f77b4;opacity:0.4;"/>
   </g>
   <g id="patch_53">
    <path clip-path="url(#pc5c63559a1)" d="M 162.794415 512.64 
L 163.922471 512.64 
L 163.922471 156.462458 
L 162.794415 156.462458 
z
" style="fill:#1f77b4;opacity:0.4;"/>
   </g>
   <g id="patch_54">
    <path clip-path="url(#pc5c63559a1)" d="M 164.204485 512.64 
L 165.332542 512.64 
L 165.332542 162.906165 
L 164.204485 162.906165 
z
" style="fill:#1f77b4;opacity:0.4;"/>
   </g>
   <g id="patch_55">
    <path clip-path="url(#pc5c63559a1)" d="M 165.614556 512.64 
L 166.742612 512.64 
L 166.742612 160.795345 
L 165.614556 160.795345 
z
" style="fill:#1f77b4;opacity:0.4;"/>
   </g>
   <g id="patch_56">
    <path clip-path="url(#pc5c63559a1)" d="M 167.024626 512.64 
L 168.152682 512.64 
L 168.152682 175.514492 
L 167.024626 175.514492 
z
" style="fill:#1f77b4;opacity:0.4;"/>
   </g>
   <g id="patch_57">
    <path clip-path="url(#pc5c63559a1)" d="M 168.434696 512.64 
L 169.562752 512.64 
L 169.562752 180.353807 
L 168.434696 180.353807 
z
" style="fill:#1f77b4;opacity:0.4;"/>
   </g>
   <g id="patch_58">
    <path clip-path="url(#pc5c63559a1)" d="M 169.844766 512.64 
L 170.972822 512.64 
L 170.972822 180.075091 
L 169.844766 180.075091 
z
" style="fill:#1f77b4;opacity:0.4;"/>
   </g>
   <g id="patch_59">
    <path clip-path="url(#pc5c63559a1)" d="M 171.254836 512.64 
L 172.382892 512.64 
L 172.382892 177.906418 
L 171.254836 177.906418 
z
" style="fill:#1f77b4;opacity:0.4;"/>
   </g>
   <g id="patch_60">
    <path clip-path="url(#pc5c63559a1)" d="M 172.664906 512.64 
L 173.792962 512.64 
L 173.792962 177.925569 
L 172.664906 177.925569 
z
" style="fill:#1f77b4;opacity:0.4;"/>
   </g>
   <g id="patch_61">
    <path clip-path="url(#pc5c63559a1)" d="M 174.074976 512.64 
L 175.203032 512.64 
L 175.203032 176.148311 
L 174.074976 176.148311 
z
" style="fill:#1f77b4;opacity:0.4;"/>
   </g>
   <g id="patch_62">
    <path clip-path="url(#pc5c63559a1)" d="M 175.485046 512.64 
L 176.613103 512.64 
L 176.613103 175.929603 
L 175.485046 175.929603 
z
" style="fill:#1f77b4;opacity:0.4;"/>
   </g>
   <g id="patch_63">
    <path clip-path="url(#pc5c63559a1)" d="M 176.895117 512.64 
L 178.023173 512.64 
L 178.023173 178.681679 
L 176.895117 178.681679 
z
" style="fill:#1f77b4;opacity:0.4;"/>
   </g>
   <g id="patch_64">
    <path clip-path="url(#pc5c63559a1)" d="M 178.305187 512.64 
L 179.433243 512.64 
L 179.433243 180.309552 
L 178.305187 180.309552 
z
" style="fill:#1f77b4;opacity:0.4;"/>
   </g>
   <g id="patch_65">
    <path clip-path="url(#pc5c63559a1)" d="M 179.715257 512.64 
L 180.843313 512.64 
L 180.843313 175.882741 
L 179.715257 175.882741 
z
" style="fill:#1f77b4;opacity:0.4;"/>
   </g>
   <g id="patch_66">
    <path clip-path="url(#pc5c63559a1)" d="M 181.125327 512.64 
L 182.253383 512.64 
L 182.253383 173.900259 
L 181.125327 173.900259 
z
" style="fill:#1f77b4;opacity:0.4;"/>
   </g>
   <g id="patch_67">
    <path clip-path="url(#pc5c63559a1)" d="M 182.535397 512.64 
L 183.663453 512.64 
L 183.663453 181.173352 
L 182.535397 181.173352 
z
" style="fill:#1f77b4;opacity:0.4;"/>
   </g>
   <g id="patch_68">
    <path clip-path="url(#pc5c63559a1)" d="M 183.945467 512.64 
L 185.073523 512.64 
L 185.073523 191.292073 
L 183.945467 191.292073 
z
" style="fill:#1f77b4;opacity:0.4;"/>
   </g>
   <g id="patch_69">
    <path clip-path="url(#pc5c63559a1)" d="M 185.355537 512.64 
L 186.483593 512.64 
L 186.483593 194.485314 
L 185.355537 194.485314 
z
" style="fill:#1f77b4;opacity:0.4;"/>
   </g>
   <g id="patch_70">
    <path clip-path="url(#pc5c63559a1)" d="M 186.765607 512.64 
L 187.893664 512.64 
L 187.893664 207.438399 
L 186.765607 207.438399 
z
" style="fill:#1f77b4;opacity:0.4;"/>
   </g>
   <g id="patch_71">
    <path clip-path="url(#pc5c63559a1)" d="M 188.175678 512.64 
L 189.303734 512.64 
L 189.303734 209.39935 
L 188.175678 209.39935 
z
" style="fill:#1f77b4;opacity:0.4;"/>
   </g>
   <g id="patch_72">
    <path clip-path="url(#pc5c63559a1)" d="M 189.585748 512.64 
L 190.713804 512.64 
L 190.713804 205.411482 
L 189.585748 205.411482 
z
" style="fill:#1f77b4;opacity:0.4;"/>
   </g>
   <g id="patch_73">
    <path clip-path="url(#pc5c63559a1)" d="M 190.995818 512.64 
L 192.123874 512.64 
L 192.123874 206.699928 
L 190.995818 206.699928 
z
" style="fill:#1f77b4;opacity:0.4;"/>
   </g>
   <g id="patch_74">
    <path clip-path="url(#pc5c63559a1)" d="M 192.405888 512.64 
L 193.533944 512.64 
L 193.533944 205.545747 
L 192.405888 205.545747 
z
" style="fill:#1f77b4;opacity:0.4;"/>
   </g>
   <g id="patch_75">
    <path clip-path="url(#pc5c63559a1)" d="M 193.815958 512.64 
L 194.944014 512.64 
L 194.944014 211.194122 
L 193.815958 211.194122 
z
" style="fill:#1f77b4;opacity:0.4;"/>
   </g>
   <g id="patch_76">
    <path clip-path="url(#pc5c63559a1)" d="M 195.226028 512.64 
L 196.354084 512.64 
L 196.354084 210.100706 
L 195.226028 210.100706 
z
" style="fill:#1f77b4;opacity:0.4;"/>
   </g>
   <g id="patch_77">
    <path clip-path="url(#pc5c63559a1)" d="M 196.636098 512.64 
L 197.764154 512.64 
L 197.764154 220.184054 
L 196.636098 220.184054 
z
" style="fill:#1f77b4;opacity:0.4;"/>
   </g>
   <g id="patch_78">
    <path clip-path="url(#pc5c63559a1)" d="M 198.046168 512.64 
L 199.174225 512.64 
L 199.174225 224.799649 
L 198.046168 224.799649 
z
" style="fill:#1f77b4;opacity:0.4;"/>
   </g>
   <g id="patch_79">
    <path clip-path="url(#pc5c63559a1)" d="M 199.456239 512.64 
L 200.584295 512.64 
L 200.584295 226.092362 
L 199.456239 226.092362 
z
" style="fill:#1f77b4;opacity:0.4;"/>
   </g>
   <g id="patch_80">
    <path clip-path="url(#pc5c63559a1)" d="M 200.866309 512.64 
L 201.994365 512.64 
L 201.994365 225.328267 
L 200.866309 225.328267 
z
" style="fill:#1f77b4;opacity:0.4;"/>
   </g>
   <g id="patch_81">
    <path clip-path="url(#pc5c63559a1)" d="M 202.276379 512.64 
L 203.404435 512.64 
L 203.404435 228.8174 
L 202.276379 228.8174 
z
" style="fill:#1f77b4;opacity:0.4;"/>
   </g>
   <g id="patch_82">
    <path clip-path="url(#pc5c63559a1)" d="M 203.686449 512.64 
L 204.814505 512.64 
L 204.814505 228.675685 
L 203.686449 228.675685 
z
" style="fill:#1f77b4;opacity:0.4;"/>
   </g>
   <g id="patch_83">
    <path clip-path="url(#pc5c63559a1)" d="M 205.096519 512.64 
L 206.224575 512.64 
L 206.224575 227.99221 
L 205.096519 227.99221 
z
" style="fill:#1f77b4;opacity:0.4;"/>
   </g>
   <g id="patch_84">
    <path clip-path="url(#pc5c63559a1)" d="M 206.506589 512.64 
L 207.634645 512.64 
L 207.634645 231.786042 
L 206.506589 231.786042 
z
" style="fill:#1f77b4;opacity:0.4;"/>
   </g>
   <g id="patch_85">
    <path clip-path="url(#pc5c63559a1)" d="M 207.916659 512.64 
L 209.044715 512.64 
L 209.044715 230.961481 
L 207.916659 230.961481 
z
" style="fill:#1f77b4;opacity:0.4;"/>
   </g>
   <g id="patch_86">
    <path clip-path="url(#pc5c63559a1)" d="M 209.326729 512.64 
L 210.454786 512.64 
L 210.454786 229.031406 
L 209.326729 229.031406 
z
" style="fill:#1f77b4;opacity:0.4;"/>
   </g>
   <g id="patch_87">
    <path clip-path="url(#pc5c63559a1)" d="M 210.7368 512.64 
L 211.864856 512.64 
L 211.864856 231.958308 
L 210.7368 231.958308 
z
" style="fill:#1f77b4;opacity:0.4;"/>
   </g>
   <g id="patch_88">
    <path clip-path="url(#pc5c63559a1)" d="M 212.14687 512.64 
L 213.274926 512.64 
L 213.274926 232.384376 
L 212.14687 232.384376 
z
" style="fill:#1f77b4;opacity:0.4;"/>
   </g>
   <g id="patch_89">
    <path clip-path="url(#pc5c63559a1)" d="M 213.55694 512.64 
L 214.684996 512.64 
L 214.684996 229.763048 
L 213.55694 229.763048 
z
" style="fill:#1f77b4;opacity:0.4;"/>
   </g>
   <g id="patch_90">
    <path clip-path="url(#pc5c63559a1)" d="M 214.96701 512.64 
L 216.095066 512.64 
L 216.095066 229.403523 
L 214.96701 229.403523 
z
" style="fill:#1f77b4;opacity:0.4;"/>
   </g>
   <g id="patch_91">
    <path clip-path="url(#pc5c63559a1)" d="M 216.37708 512.64 
L 217.505136 512.64 
L 217.505136 232.456068 
L 216.37708 232.456068 
z
" style="fill:#1f77b4;opacity:0.4;"/>
   </g>
   <g id="patch_92">
    <path clip-path="url(#pc5c63559a1)" d="M 217.78715 512.64 
L 218.915206 512.64 
L 218.915206 235.292199 
L 217.78715 235.292199 
z
" style="fill:#1f77b4;opacity:0.4;"/>
   </g>
   <g id="patch_93">
    <path clip-path="url(#pc5c63559a1)" d="M 219.19722 512.64 
L 220.325276 512.64 
L 220.325276 236.51009 
L 219.19722 236.51009 
z
" style="fill:#1f77b4;opacity:0.4;"/>
   </g>
   <g id="patch_94">
    <path clip-path="url(#pc5c63559a1)" d="M 220.60729 512.64 
L 221.735347 512.64 
L 221.735347 233.886395 
L 220.60729 233.886395 
z
" style="fill:#1f77b4;opacity:0.4;"/>
   </g>
   <g id="patch_95">
    <path clip-path="url(#pc5c63559a1)" d="M 222.017361 512.64 
L 223.145417 512.64 
L 223.145417 232.245879 
L 222.017361 232.245879 
z
" style="fill:#1f77b4;opacity:0.4;"/>
   </g>
   <g id="patch_96">
    <path clip-path="url(#pc5c63559a1)" d="M 223.427431 512.64 
L 224.555487 512.64 
L 224.555487 230.617263 
L 223.427431 230.617263 
z
" style="fill:#1f77b4;opacity:0.4;"/>
   </g>
   <g id="patch_97">
    <path clip-path="url(#pc5c63559a1)" d="M 224.837501 512.64 
L 225.965557 512.64 
L 225.965557 233.092324 
L 224.837501 233.092324 
z
" style="fill:#1f77b4;opacity:0.4;"/>
   </g>
   <g id="patch_98">
    <path clip-path="url(#pc5c63559a1)" d="M 226.247571 512.64 
L 227.375627 512.64 
L 227.375627 233.064434 
L 226.247571 233.064434 
z
" style="fill:#1f77b4;opacity:0.4;"/>
   </g>
   <g id="patch_99">
    <path clip-path="url(#pc5c63559a1)" d="M 227.657641 512.64 
L 228.785697 512.64 
L 228.785697 235.502681 
L 227.657641 235.502681 
z
" style="fill:#1f77b4;opacity:0.4;"/>
   </g>
   <g id="patch_100">
    <path clip-path="url(#pc5c63559a1)" d="M 229.067711 512.64 
L 230.195767 512.64 
L 230.195767 236.041851 
L 229.067711 236.041851 
z
" style="fill:#1f77b4;opacity:0.4;"/>
   </g>
   <g id="patch_101">
    <path clip-path="url(#pc5c63559a1)" d="M 230.477781 512.64 
L 231.605837 512.64 
L 231.605837 235.722536 
L 230.477781 235.722536 
z
" style="fill:#1f77b4;opacity:0.4;"/>
   </g>
   <g id="patch_102">
    <path clip-path="url(#pc5c63559a1)" d="M 231.887851 512.64 
L 233.015908 512.64 
L 233.015908 238.417669 
L 231.887851 238.417669 
z
" style="fill:#1f77b4;opacity:0.4;"/>
   </g>
   <g id="patch_103">
    <path clip-path="url(#pc5c63559a1)" d="M 233.297922 512.64 
L 234.425978 512.64 
L 234.425978 235.145218 
L 233.297922 235.145218 
z
" style="fill:#1f77b4;opacity:0.4;"/>
   </g>
   <g id="patch_104">
    <path clip-path="url(#pc5c63559a1)" d="M 234.707992 512.64 
L 235.836048 512.64 
L 235.836048 234.712246 
L 234.707992 234.712246 
z
" style="fill:#1f77b4;opacity:0.4;"/>
   </g>
   <g id="patch_105">
    <path clip-path="url(#pc5c63559a1)" d="M 236.118062 512.64 
L 237.246118 512.64 
L 237.246118 231.957231 
L 236.118062 231.957231 
z
" style="fill:#1f77b4;opacity:0.4;"/>
   </g>
   <g id="patch_106">
    <path clip-path="url(#pc5c63559a1)" d="M 237.528132 512.64 
L 238.656188 512.64 
L 238.656188 230.672808 
L 237.528132 230.672808 
z
" style="fill:#1f77b4;opacity:0.4;"/>
   </g>
   <g id="patch_107">
    <path clip-path="url(#pc5c63559a1)" d="M 238.938202 512.64 
L 240.066258 512.64 
L 240.066258 229.493151 
L 238.938202 229.493151 
z
" style="fill:#1f77b4;opacity:0.4;"/>
   </g>
   <g id="patch_108">
    <path clip-path="url(#pc5c63559a1)" d="M 240.348272 512.64 
L 241.476328 512.64 
L 241.476328 229.846283 
L 240.348272 229.846283 
z
" style="fill:#1f77b4;opacity:0.4;"/>
   </g>
   <g id="patch_109">
    <path clip-path="url(#pc5c63559a1)" d="M 241.758342 512.64 
L 242.886398 512.64 
L 242.886398 229.057522 
L 241.758342 229.057522 
z
" style="fill:#1f77b4;opacity:0.4;"/>
   </g>
   <g id="patch_110">
    <path clip-path="url(#pc5c63559a1)" d="M 243.168412 512.64 
L 244.296469 512.64 
L 244.296469 229.166453 
L 243.168412 229.166453 
z
" style="fill:#1f77b4;opacity:0.4;"/>
   </g>
   <g id="patch_111">
    <path clip-path="url(#pc5c63559a1)" d="M 244.578483 512.64 
L 245.706539 512.64 
L 245.706539 232.624382 
L 244.578483 232.624382 
z
" style="fill:#1f77b4;opacity:0.4;"/>
   </g>
   <g id="patch_112">
    <path clip-path="url(#pc5c63559a1)" d="M 245.988553 512.64 
L 247.116609 512.64 
L 247.116609 231.87053 
L 245.988553 231.87053 
z
" style="fill:#1f77b4;opacity:0.4;"/>
   </g>
   <g id="patch_113">
    <path clip-path="url(#pc5c63559a1)" d="M 247.398623 512.64 
L 248.526679 512.64 
L 248.526679 229.180476 
L 247.398623 229.180476 
z
" style="fill:#1f77b4;opacity:0.4;"/>
   </g>
   <g id="patch_114">
    <path clip-path="url(#pc5c63559a1)" d="M 248.808693 512.64 
L 249.936749 512.64 
L 249.936749 226.00113 
L 248.808693 226.00113 
z
" style="fill:#1f77b4;opacity:0.4;"/>
   </g>
   <g id="patch_115">
    <path clip-path="url(#pc5c63559a1)" d="M 250.218763 512.64 
L 251.346819 512.64 
L 251.346819 224.604523 
L 250.218763 224.604523 
z
" style="fill:#1f77b4;opacity:0.4;"/>
   </g>
   <g id="patch_116">
    <path clip-path="url(#pc5c63559a1)" d="M 251.628833 512.64 
L 252.756889 512.64 
L 252.756889 220.620442 
L 251.628833 220.620442 
z
" style="fill:#1f77b4;opacity:0.4;"/>
   </g>
   <g id="patch_117">
    <path clip-path="url(#pc5c63559a1)" d="M 253.038903 512.64 
L 254.166959 512.64 
L 254.166959 217.182575 
L 253.038903 217.182575 
z
" style="fill:#1f77b4;opacity:0.4;"/>
   </g>
   <g id="patch_118">
    <path clip-path="url(#pc5c63559a1)" d="M 254.448973 512.64 
L 255.57703 512.64 
L 255.57703 218.32619 
L 254.448973 218.32619 
z
" style="fill:#1f77b4;opacity:0.4;"/>
   </g>
   <g id="patch_119">
    <path clip-path="url(#pc5c63559a1)" d="M 255.859044 512.64 
L 256.9871 512.64 
L 256.9871 222.485636 
L 255.859044 222.485636 
z
" style="fill:#1f77b4;opacity:0.4;"/>
   </g>
   <g id="patch_120">
    <path clip-path="url(#pc5c63559a1)" d="M 257.269114 512.64 
L 258.39717 512.64 
L 258.39717 226.638764 
L 257.269114 226.638764 
z
" style="fill:#1f77b4;opacity:0.4;"/>
   </g>
   <g id="patch_121">
    <path clip-path="url(#pc5c63559a1)" d="M 258.679184 512.64 
L 259.80724 512.64 
L 259.80724 226.771985 
L 258.679184 226.771985 
z
" style="fill:#1f77b4;opacity:0.4;"/>
   </g>
   <g id="patch_122">
    <path clip-path="url(#pc5c63559a1)" d="M 260.089254 512.64 
L 261.21731 512.64 
L 261.21731 226.216827 
L 260.089254 226.216827 
z
" style="fill:#1f77b4;opacity:0.4;"/>
   </g>
   <g id="patch_123">
    <path clip-path="url(#pc5c63559a1)" d="M 261.499324 512.64 
L 262.62738 512.64 
L 262.62738 222.764048 
L 261.499324 222.764048 
z
" style="fill:#1f77b4;opacity:0.4;"/>
   </g>
   <g id="patch_124">
    <path clip-path="url(#pc5c63559a1)" d="M 262.909394 512.64 
L 264.03745 512.64 
L 264.03745 219.139218 
L 262.909394 219.139218 
z
" style="fill:#1f77b4;opacity:0.4;"/>
   </g>
   <g id="patch_125">
    <path clip-path="url(#pc5c63559a1)" d="M 264.319464 512.64 
L 265.44752 512.64 
L 265.44752 221.98635 
L 264.319464 221.98635 
z
" style="fill:#1f77b4;opacity:0.4;"/>
   </g>
   <g id="patch_126">
    <path clip-path="url(#pc5c63559a1)" d="M 265.729534 512.64 
L 266.85759 512.64 
L 266.85759 222.921847 
L 265.729534 222.921847 
z
" style="fill:#1f77b4;opacity:0.4;"/>
   </g>
   <g id="patch_127">
    <path clip-path="url(#pc5c63559a1)" d="M 267.139605 512.64 
L 268.267661 512.64 
L 268.267661 226.109837 
L 267.139605 226.109837 
z
" style="fill:#1f77b4;opacity:0.4;"/>
   </g>
   <g id="patch_128">
    <path clip-path="url(#pc5c63559a1)" d="M 268.549675 512.64 
L 269.677731 512.64 
L 269.677731 223.650204 
L 268.549675 223.650204 
z
" style="fill:#1f77b4;opacity:0.4;"/>
   </g>
   <g id="patch_129">
    <path clip-path="url(#pc5c63559a1)" d="M 269.959745 512.64 
L 271.087801 512.64 
L 271.087801 226.925484 
L 269.959745 226.925484 
z
" style="fill:#1f77b4;opacity:0.4;"/>
   </g>
   <g id="patch_130">
    <path clip-path="url(#pc5c63559a1)" d="M 271.369815 512.64 
L 272.497871 512.64 
L 272.497871 226.949487 
L 271.369815 226.949487 
z
" style="fill:#1f77b4;opacity:0.4;"/>
   </g>
   <g id="patch_131">
    <path clip-path="url(#pc5c63559a1)" d="M 272.779885 512.64 
L 273.907941 512.64 
L 273.907941 229.476088 
L 272.779885 229.476088 
z
" style="fill:#1f77b4;opacity:0.4;"/>
   </g>
   <g id="patch_132">
    <path clip-path="url(#pc5c63559a1)" d="M 274.189955 512.64 
L 275.318011 512.64 
L 275.318011 227.195753 
L 274.189955 227.195753 
z
" style="fill:#1f77b4;opacity:0.4;"/>
   </g>
   <g id="patch_133">
    <path clip-path="url(#pc5c63559a1)" d="M 275.600025 512.64 
L 276.728081 512.64 
L 276.728081 226.60078 
L 275.600025 226.60078 
z
" style="fill:#1f77b4;opacity:0.4;"/>
   </g>
   <g id="patch_134">
    <path clip-path="url(#pc5c63559a1)" d="M 277.010095 512.64 
L 278.138151 512.64 
L 278.138151 227.54447 
L 277.010095 227.54447 
z
" style="fill:#1f77b4;opacity:0.4;"/>
   </g>
   <g id="patch_135">
    <path clip-path="url(#pc5c63559a1)" d="M 278.420166 512.64 
L 279.548222 512.64 
L 279.548222 229.28133 
L 278.420166 229.28133 
z
" style="fill:#1f77b4;opacity:0.4;"/>
   </g>
   <g id="patch_136">
    <path clip-path="url(#pc5c63559a1)" d="M 279.830236 512.64 
L 280.958292 512.64 
L 280.958292 229.408799 
L 279.830236 229.408799 
z
" style="fill:#1f77b4;opacity:0.4;"/>
   </g>
   <g id="patch_137">
    <path clip-path="url(#pc5c63559a1)" d="M 281.240306 512.64 
L 282.368362 512.64 
L 282.368362 226.772056 
L 281.240306 226.772056 
z
" style="fill:#1f77b4;opacity:0.4;"/>
   </g>
   <g id="patch_138">
    <path clip-path="url(#pc5c63559a1)" d="M 282.650376 512.64 
L 283.778432 512.64 
L 283.778432 228.320632 
L 282.650376 228.320632 
z
" style="fill:#1f77b4;opacity:0.4;"/>
   </g>
   <g id="patch_139">
    <path clip-path="url(#pc5c63559a1)" d="M 284.060446 512.64 
L 285.188502 512.64 
L 285.188502 230.923175 
L 284.060446 230.923175 
z
" style="fill:#1f77b4;opacity:0.4;"/>
   </g>
   <g id="patch_140">
    <path clip-path="url(#pc5c63559a1)" d="M 285.470516 512.64 
L 286.598572 512.64 
L 286.598572 229.873725 
L 285.470516 229.873725 
z
" style="fill:#1f77b4;opacity:0.4;"/>
   </g>
   <g id="patch_141">
    <path clip-path="url(#pc5c63559a1)" d="M 286.880586 512.64 
L 288.008642 512.64 
L 288.008642 228.993776 
L 286.880586 228.993776 
z
" style="fill:#1f77b4;opacity:0.4;"/>
   </g>
   <g id="patch_142">
    <path clip-path="url(#pc5c63559a1)" d="M 288.290656 512.64 
L 289.418712 512.64 
L 289.418712 230.802634 
L 288.290656 230.802634 
z
" style="fill:#1f77b4;opacity:0.4;"/>
   </g>
   <g id="patch_143">
    <path clip-path="url(#pc5c63559a1)" d="M 289.700727 512.64 
L 290.828783 512.64 
L 290.828783 232.23826 
L 289.700727 232.23826 
z
" style="fill:#1f77b4;opacity:0.4;"/>
   </g>
   <g id="patch_144">
    <path clip-path="url(#pc5c63559a1)" d="M 291.110797 512.64 
L 292.238853 512.64 
L 292.238853 234.326213 
L 291.110797 234.326213 
z
" style="fill:#1f77b4;opacity:0.4;"/>
   </g>
   <g id="patch_145">
    <path clip-path="url(#pc5c63559a1)" d="M 292.520867 512.64 
L 293.648923 512.64 
L 293.648923 231.529944 
L 292.520867 231.529944 
z
" style="fill:#1f77b4;opacity:0.4;"/>
   </g>
   <g id="patch_146">
    <path clip-path="url(#pc5c63559a1)" d="M 293.930937 512.64 
L 295.058993 512.64 
L 295.058993 232.20921 
L 293.930937 232.20921 
z
" style="fill:#1f77b4;opacity:0.4;"/>
   </g>
   <g id="patch_147">
    <path clip-path="url(#pc5c63559a1)" d="M 295.341007 512.64 
L 296.469063 512.64 
L 296.469063 228.902576 
L 295.341007 228.902576 
z
" style="fill:#1f77b4;opacity:0.4;"/>
   </g>
   <g id="patch_148">
    <path clip-path="url(#pc5c63559a1)" d="M 296.751077 512.64 
L 297.879133 512.64 
L 297.879133 231.504701 
L 296.751077 231.504701 
z
" style="fill:#1f77b4;opacity:0.4;"/>
   </g>
   <g id="patch_149">
    <path clip-path="url(#pc5c63559a1)" d="M 298.161147 512.64 
L 299.289203 512.64 
L 299.289203 234.239096 
L 298.161147 234.239096 
z
" style="fill:#1f77b4;opacity:0.4;"/>
   </g>
   <g id="patch_150">
    <path clip-path="url(#pc5c63559a1)" d="M 299.571217 512.64 
L 300.699273 512.64 
L 300.699273 235.453996 
L 299.571217 235.453996 
z
" style="fill:#1f77b4;opacity:0.4;"/>
   </g>
   <g id="patch_151">
    <path clip-path="url(#pc5c63559a1)" d="M 300.981288 512.64 
L 302.109344 512.64 
L 302.109344 233.457612 
L 300.981288 233.457612 
z
" style="fill:#1f77b4;opacity:0.4;"/>
   </g>
   <g id="patch_152">
    <path clip-path="url(#pc5c63559a1)" d="M 302.391358 512.64 
L 303.519414 512.64 
L 303.519414 230.704005 
L 302.391358 230.704005 
z
" style="fill:#1f77b4;opacity:0.4;"/>
   </g>
   <g id="patch_153">
    <path clip-path="url(#pc5c63559a1)" d="M 303.801428 512.64 
L 304.929484 512.64 
L 304.929484 231.478206 
L 303.801428 231.478206 
z
" style="fill:#1f77b4;opacity:0.4;"/>
   </g>
   <g id="patch_154">
    <path clip-path="url(#pc5c63559a1)" d="M 305.211498 512.64 
L 306.339554 512.64 
L 306.339554 228.186662 
L 305.211498 228.186662 
z
" style="fill:#1f77b4;opacity:0.4;"/>
   </g>
   <g id="patch_155">
    <path clip-path="url(#pc5c63559a1)" d="M 306.621568 512.64 
L 307.749624 512.64 
L 307.749624 224.447075 
L 306.621568 224.447075 
z
" style="fill:#1f77b4;opacity:0.4;"/>
   </g>
   <g id="patch_156">
    <path clip-path="url(#pc5c63559a1)" d="M 308.031638 512.64 
L 309.159694 512.64 
L 309.159694 227.153363 
L 308.031638 227.153363 
z
" style="fill:#1f77b4;opacity:0.4;"/>
   </g>
   <g id="patch_157">
    <path clip-path="url(#pc5c63559a1)" d="M 309.441708 512.64 
L 310.569764 512.64 
L 310.569764 227.291508 
L 309.441708 227.291508 
z
" style="fill:#1f77b4;opacity:0.4;"/>
   </g>
   <g id="patch_158">
    <path clip-path="url(#pc5c63559a1)" d="M 310.851778 512.64 
L 311.979834 512.64 
L 311.979834 223.896721 
L 310.851778 223.896721 
z
" style="fill:#1f77b4;opacity:0.4;"/>
   </g>
   <g id="patch_159">
    <path clip-path="url(#pc5c63559a1)" d="M 312.261849 512.64 
L 313.389905 512.64 
L 313.389905 214.952119 
L 312.261849 214.952119 
z
" style="fill:#1f77b4;opacity:0.4;"/>
   </g>
   <g id="patch_160">
    <path clip-path="url(#pc5c63559a1)" d="M 313.671919 512.64 
L 314.799975 512.64 
L 314.799975 211.90936 
L 313.671919 211.90936 
z
" style="fill:#1f77b4;opacity:0.4;"/>
   </g>
   <g id="patch_161">
    <path clip-path="url(#pc5c63559a1)" d="M 315.081989 512.64 
L 316.210045 512.64 
L 316.210045 207.525451 
L 315.081989 207.525451 
z
" style="fill:#1f77b4;opacity:0.4;"/>
   </g>
   <g id="patch_162">
    <path clip-path="url(#pc5c63559a1)" d="M 316.492059 512.64 
L 317.620115 512.64 
L 317.620115 210.73165 
L 316.492059 210.73165 
z
" style="fill:#1f77b4;opacity:0.4;"/>
   </g>
   <g id="patch_163">
    <path clip-path="url(#pc5c63559a1)" d="M 317.902129 512.64 
L 319.030185 512.64 
L 319.030185 215.082671 
L 317.902129 215.082671 
z
" style="fill:#1f77b4;opacity:0.4;"/>
   </g>
   <g id="patch_164">
    <path clip-path="url(#pc5c63559a1)" d="M 319.312199 512.64 
L 320.440255 512.64 
L 320.440255 213.159472 
L 319.312199 213.159472 
z
" style="fill:#1f77b4;opacity:0.4;"/>
   </g>
   <g id="patch_165">
    <path clip-path="url(#pc5c63559a1)" d="M 320.722269 512.64 
L 321.850325 512.64 
L 321.850325 213.22327 
L 320.722269 213.22327 
z
" style="fill:#1f77b4;opacity:0.4;"/>
   </g>
   <g id="patch_166">
    <path clip-path="url(#pc5c63559a1)" d="M 322.132339 512.64 
L 323.260395 512.64 
L 323.260395 215.528796 
L 322.132339 215.528796 
z
" style="fill:#1f77b4;opacity:0.4;"/>
   </g>
   <g id="patch_167">
    <path clip-path="url(#pc5c63559a1)" d="M 323.54241 512.64 
L 324.670466 512.64 
L 324.670466 216.895095 
L 323.54241 216.895095 
z
" style="fill:#1f77b4;opacity:0.4;"/>
   </g>
   <g id="patch_168">
    <path clip-path="url(#pc5c63559a1)" d="M 324.95248 512.64 
L 326.080536 512.64 
L 326.080536 214.133519 
L 324.95248 214.133519 
z
" style="fill:#1f77b4;opacity:0.4;"/>
   </g>
   <g id="patch_169">
    <path clip-path="url(#pc5c63559a1)" d="M 326.36255 512.64 
L 327.490606 512.64 
L 327.490606 214.914445 
L 326.36255 214.914445 
z
" style="fill:#1f77b4;opacity:0.4;"/>
   </g>
   <g id="patch_170">
    <path clip-path="url(#pc5c63559a1)" d="M 327.77262 512.64 
L 328.900676 512.64 
L 328.900676 218.671663 
L 327.77262 218.671663 
z
" style="fill:#1f77b4;opacity:0.4;"/>
   </g>
   <g id="patch_171">
    <path clip-path="url(#pc5c63559a1)" d="M 329.18269 512.64 
L 330.310746 512.64 
L 330.310746 218.263106 
L 329.18269 218.263106 
z
" style="fill:#1f77b4;opacity:0.4;"/>
   </g>
   <g id="patch_172">
    <path clip-path="url(#pc5c63559a1)" d="M 330.59276 512.64 
L 331.720816 512.64 
L 331.720816 218.52744 
L 330.59276 218.52744 
z
" style="fill:#1f77b4;opacity:0.4;"/>
   </g>
   <g id="patch_173">
    <path clip-path="url(#pc5c63559a1)" d="M 332.00283 512.64 
L 333.130886 512.64 
L 333.130886 220.002685 
L 332.00283 220.002685 
z
" style="fill:#1f77b4;opacity:0.4;"/>
   </g>
   <g id="patch_174">
    <path clip-path="url(#pc5c63559a1)" d="M 333.4129 512.64 
L 334.540956 512.64 
L 334.540956 217.910501 
L 333.4129 217.910501 
z
" style="fill:#1f77b4;opacity:0.4;"/>
   </g>
   <g id="patch_175">
    <path clip-path="url(#pc5c63559a1)" d="M 334.82297 512.64 
L 335.951027 512.64 
L 335.951027 220.930503 
L 334.82297 220.930503 
z
" style="fill:#1f77b4;opacity:0.4;"/>
   </g>
   <g id="patch_176">
    <path clip-path="url(#pc5c63559a1)" d="M 336.233041 512.64 
L 337.361097 512.64 
L 337.361097 217.866144 
L 336.233041 217.866144 
z
" style="fill:#1f77b4;opacity:0.4;"/>
   </g>
   <g id="patch_177">
    <path clip-path="url(#pc5c63559a1)" d="M 337.643111 512.64 
L 338.771167 512.64 
L 338.771167 216.227866 
L 337.643111 216.227866 
z
" style="fill:#1f77b4;opacity:0.4;"/>
   </g>
   <g id="patch_178">
    <path clip-path="url(#pc5c63559a1)" d="M 339.053181 512.64 
L 340.181237 512.64 
L 340.181237 219.02888 
L 339.053181 219.02888 
z
" style="fill:#1f77b4;opacity:0.4;"/>
   </g>
   <g id="patch_179">
    <path clip-path="url(#pc5c63559a1)" d="M 340.463251 512.64 
L 341.591307 512.64 
L 341.591307 218.145372 
L 340.463251 218.145372 
z
" style="fill:#1f77b4;opacity:0.4;"/>
   </g>
   <g id="patch_180">
    <path clip-path="url(#pc5c63559a1)" d="M 341.873321 512.64 
L 343.001377 512.64 
L 343.001377 213.408304 
L 341.873321 213.408304 
z
" style="fill:#1f77b4;opacity:0.4;"/>
   </g>
   <g id="patch_181">
    <path clip-path="url(#pc5c63559a1)" d="M 343.283391 512.64 
L 344.411447 512.64 
L 344.411447 200.886669 
L 343.283391 200.886669 
z
" style="fill:#1f77b4;opacity:0.4;"/>
   </g>
   <g id="patch_182">
    <path clip-path="url(#pc5c63559a1)" d="M 344.693461 512.64 
L 345.821517 512.64 
L 345.821517 193.218249 
L 344.693461 193.218249 
z
" style="fill:#1f77b4;opacity:0.4;"/>
   </g>
   <g id="patch_183">
    <path clip-path="url(#pc5c63559a1)" d="M 346.103531 512.64 
L 347.231588 512.64 
L 347.231588 190.784364 
L 346.103531 190.784364 
z
" style="fill:#1f77b4;opacity:0.4;"/>
   </g>
   <g id="patch_184">
    <path clip-path="url(#pc5c63559a1)" d="M 347.513602 512.64 
L 348.641658 512.64 
L 348.641658 190.618642 
L 347.513602 190.618642 
z
" style="fill:#1f77b4;opacity:0.4;"/>
   </g>
   <g id="patch_185">
    <path clip-path="url(#pc5c63559a1)" d="M 348.923672 512.64 
L 350.051728 512.64 
L 350.051728 182.258736 
L 348.923672 182.258736 
z
" style="fill:#1f77b4;opacity:0.4;"/>
   </g>
   <g id="patch_186">
    <path clip-path="url(#pc5c63559a1)" d="M 350.333742 512.64 
L 351.461798 512.64 
L 351.461798 167.987134 
L 350.333742 167.987134 
z
" style="fill:#1f77b4;opacity:0.4;"/>
   </g>
   <g id="patch_187">
    <path clip-path="url(#pc5c63559a1)" d="M 351.743812 512.64 
L 352.871868 512.64 
L 352.871868 150.612391 
L 351.743812 150.612391 
z
" style="fill:#1f77b4;opacity:0.4;"/>
   </g>
   <g id="patch_188">
    <path clip-path="url(#pc5c63559a1)" d="M 353.153882 512.64 
L 354.281938 512.64 
L 354.281938 136.973096 
L 353.153882 136.973096 
z
" style="fill:#1f77b4;opacity:0.4;"/>
   </g>
   <g id="patch_189">
    <path clip-path="url(#pc5c63559a1)" d="M 354.563952 512.64 
L 355.692008 512.64 
L 355.692008 133.137509 
L 354.563952 133.137509 
z
" style="fill:#1f77b4;opacity:0.4;"/>
   </g>
   <g id="patch_190">
    <path clip-path="url(#pc5c63559a1)" d="M 355.974022 512.64 
L 357.102078 512.64 
L 357.102078 129.536514 
L 355.974022 129.536514 
z
" style="fill:#1f77b4;opacity:0.4;"/>
   </g>
   <g id="patch_191">
    <path clip-path="url(#pc5c63559a1)" d="M 357.384092 512.64 
L 358.512149 512.64 
L 358.512149 130.645044 
L 357.384092 130.645044 
z
" style="fill:#1f77b4;opacity:0.4;"/>
   </g>
   <g id="patch_192">
    <path clip-path="url(#pc5c63559a1)" d="M 358.794163 512.64 
L 359.922219 512.64 
L 359.922219 135.677986 
L 358.794163 135.677986 
z
" style="fill:#1f77b4;opacity:0.4;"/>
   </g>
   <g id="patch_193">
    <path clip-path="url(#pc5c63559a1)" d="M 360.204233 512.64 
L 361.332289 512.64 
L 361.332289 135.49832 
L 360.204233 135.49832 
z
" style="fill:#1f77b4;opacity:0.4;"/>
   </g>
   <g id="patch_194">
    <path clip-path="url(#pc5c63559a1)" d="M 361.614303 512.64 
L 362.742359 512.64 
L 362.742359 135.776143 
L 361.614303 135.776143 
z
" style="fill:#1f77b4;opacity:0.4;"/>
   </g>
   <g id="patch_195">
    <path clip-path="url(#pc5c63559a1)" d="M 363.024373 512.64 
L 364.152429 512.64 
L 364.152429 131.076264 
L 363.024373 131.076264 
z
" style="fill:#1f77b4;opacity:0.4;"/>
   </g>
   <g id="patch_196">
    <path clip-path="url(#pc5c63559a1)" d="M 364.434443 512.64 
L 365.562499 512.64 
L 365.562499 127.405954 
L 364.434443 127.405954 
z
" style="fill:#1f77b4;opacity:0.4;"/>
   </g>
   <g id="patch_197">
    <path clip-path="url(#pc5c63559a1)" d="M 365.844513 512.64 
L 366.972569 512.64 
L 366.972569 132.749335 
L 365.844513 132.749335 
z
" style="fill:#1f77b4;opacity:0.4;"/>
   </g>
   <g id="patch_198">
    <path clip-path="url(#pc5c63559a1)" d="M 367.254583 512.64 
L 368.382639 512.64 
L 368.382639 137.9008 
L 367.254583 137.9008 
z
" style="fill:#1f77b4;opacity:0.4;"/>
   </g>
   <g id="patch_199">
    <path clip-path="url(#pc5c63559a1)" d="M 368.664653 512.64 
L 369.79271 512.64 
L 369.79271 132.619276 
L 368.664653 132.619276 
z
" style="fill:#1f77b4;opacity:0.4;"/>
   </g>
   <g id="patch_200">
    <path clip-path="url(#pc5c63559a1)" d="M 370.074724 512.64 
L 371.20278 512.64 
L 371.20278 134.917871 
L 370.074724 134.917871 
z
" style="fill:#1f77b4;opacity:0.4;"/>
   </g>
   <g id="patch_201">
    <path clip-path="url(#pc5c63559a1)" d="M 371.484794 512.64 
L 372.61285 512.64 
L 372.61285 135.51467 
L 371.484794 135.51467 
z
" style="fill:#1f77b4;opacity:0.4;"/>
   </g>
   <g id="patch_202">
    <path clip-path="url(#pc5c63559a1)" d="M 372.894864 512.64 
L 374.02292 512.64 
L 374.02292 138.513596 
L 372.894864 138.513596 
z
" style="fill:#1f77b4;opacity:0.4;"/>
   </g>
   <g id="patch_203">
    <path clip-path="url(#pc5c63559a1)" d="M 374.304934 512.64 
L 375.43299 512.64 
L 375.43299 137.108141 
L 374.304934 137.108141 
z
" style="fill:#1f77b4;opacity:0.4;"/>
   </g>
   <g id="patch_204">
    <path clip-path="url(#pc5c63559a1)" d="M 375.715004 512.64 
L 376.84306 512.64 
L 376.84306 140.954331 
L 375.715004 140.954331 
z
" style="fill:#1f77b4;opacity:0.4;"/>
   </g>
   <g id="patch_205">
    <path clip-path="url(#pc5c63559a1)" d="M 377.125074 512.64 
L 378.25313 512.64 
L 378.25313 139.055307 
L 377.125074 139.055307 
z
" style="fill:#1f77b4;opacity:0.4;"/>
   </g>
   <g id="patch_206">
    <path clip-path="url(#pc5c63559a1)" d="M 378.535144 512.64 
L 379.6632 512.64 
L 379.6632 143.361439 
L 378.535144 143.361439 
z
" style="fill:#1f77b4;opacity:0.4;"/>
   </g>
   <g id="patch_207">
    <path clip-path="url(#pc5c63559a1)" d="M 379.945214 512.64 
L 381.073271 512.64 
L 381.073271 144.303342 
L 379.945214 144.303342 
z
" style="fill:#1f77b4;opacity:0.4;"/>
   </g>
   <g id="patch_208">
    <path clip-path="url(#pc5c63559a1)" d="M 381.355285 512.64 
L 382.483341 512.64 
L 382.483341 147.856945 
L 381.355285 147.856945 
z
" style="fill:#1f77b4;opacity:0.4;"/>
   </g>
   <g id="patch_209">
    <path clip-path="url(#pc5c63559a1)" d="M 382.765355 512.64 
L 383.893411 512.64 
L 383.893411 151.815251 
L 382.765355 151.815251 
z
" style="fill:#1f77b4;opacity:0.4;"/>
   </g>
   <g id="patch_210">
    <path clip-path="url(#pc5c63559a1)" d="M 384.175425 512.64 
L 385.303481 512.64 
L 385.303481 152.099393 
L 384.175425 152.099393 
z
" style="fill:#1f77b4;opacity:0.4;"/>
   </g>
   <g id="patch_211">
    <path clip-path="url(#pc5c63559a1)" d="M 385.585495 512.64 
L 386.713551 512.64 
L 386.713551 149.137288 
L 385.585495 149.137288 
z
" style="fill:#1f77b4;opacity:0.4;"/>
   </g>
   <g id="patch_212">
    <path clip-path="url(#pc5c63559a1)" d="M 386.995565 512.64 
L 388.123621 512.64 
L 388.123621 146.162113 
L 386.995565 146.162113 
z
" style="fill:#1f77b4;opacity:0.4;"/>
   </g>
   <g id="patch_213">
    <path clip-path="url(#pc5c63559a1)" d="M 388.405635 512.64 
L 389.533691 512.64 
L 389.533691 145.209017 
L 388.405635 145.209017 
z
" style="fill:#1f77b4;opacity:0.4;"/>
   </g>
   <g id="patch_214">
    <path clip-path="url(#pc5c63559a1)" d="M 389.815705 512.64 
L 390.943761 512.64 
L 390.943761 140.707802 
L 389.815705 140.707802 
z
" style="fill:#1f77b4;opacity:0.4;"/>
   </g>
   <g id="patch_215">
    <path clip-path="url(#pc5c63559a1)" d="M 391.225775 512.64 
L 392.353832 512.64 
L 392.353832 138.384012 
L 391.225775 138.384012 
z
" style="fill:#1f77b4;opacity:0.4;"/>
   </g>
   <g id="patch_216">
    <path clip-path="url(#pc5c63559a1)" d="M 392.635846 512.64 
L 393.763902 512.64 
L 393.763902 135.678483 
L 392.635846 135.678483 
z
" style="fill:#1f77b4;opacity:0.4;"/>
   </g>
   <g id="patch_217">
    <path clip-path="url(#pc5c63559a1)" d="M 394.045916 512.64 
L 395.173972 512.64 
L 395.173972 140.624845 
L 394.045916 140.624845 
z
" style="fill:#1f77b4;opacity:0.4;"/>
   </g>
   <g id="patch_218">
    <path clip-path="url(#pc5c63559a1)" d="M 395.455986 512.64 
L 396.584042 512.64 
L 396.584042 143.92814 
L 395.455986 143.92814 
z
" style="fill:#1f77b4;opacity:0.4;"/>
   </g>
   <g id="patch_219">
    <path clip-path="url(#pc5c63559a1)" d="M 396.866056 512.64 
L 397.994112 512.64 
L 397.994112 140.667774 
L 396.866056 140.667774 
z
" style="fill:#1f77b4;opacity:0.4;"/>
   </g>
   <g id="patch_220">
    <path clip-path="url(#pc5c63559a1)" d="M 398.276126 512.64 
L 399.404182 512.64 
L 399.404182 133.888831 
L 398.276126 133.888831 
z
" style="fill:#1f77b4;opacity:0.4;"/>
   </g>
   <g id="patch_221">
    <path clip-path="url(#pc5c63559a1)" d="M 399.686196 512.64 
L 400.814252 512.64 
L 400.814252 131.898506 
L 399.686196 131.898506 
z
" style="fill:#1f77b4;opacity:0.4;"/>
   </g>
   <g id="patch_222">
    <path clip-path="url(#pc5c63559a1)" d="M 401.096266 512.64 
L 402.224322 512.64 
L 402.224322 133.264946 
L 401.096266 133.264946 
z
" style="fill:#1f77b4;opacity:0.4;"/>
   </g>
   <g id="patch_223">
    <path clip-path="url(#pc5c63559a1)" d="M 402.506336 512.64 
L 403.634393 512.64 
L 403.634393 132.624547 
L 402.506336 132.624547 
z
" style="fill:#1f77b4;opacity:0.4;"/>
   </g>
   <g id="patch_224">
    <path clip-path="url(#pc5c63559a1)" d="M 403.916407 512.64 
L 405.044463 512.64 
L 405.044463 132.61971 
L 403.916407 132.61971 
z
" style="fill:#1f77b4;opacity:0.4;"/>
   </g>
   <g id="patch_225">
    <path clip-path="url(#pc5c63559a1)" d="M 405.326477 512.64 
L 406.454533 512.64 
L 406.454533 135.464801 
L 405.326477 135.464801 
z
" style="fill:#1f77b4;opacity:0.4;"/>
   </g>
   <g id="patch_226">
    <path clip-path="url(#pc5c63559a1)" d="M 406.736547 512.64 
L 407.864603 512.64 
L 407.864603 138.07355 
L 406.736547 138.07355 
z
" style="fill:#1f77b4;opacity:0.4;"/>
   </g>
   <g id="patch_227">
    <path clip-path="url(#pc5c63559a1)" d="M 408.146617 512.64 
L 409.274673 512.64 
L 409.274673 134.183995 
L 408.146617 134.183995 
z
" style="fill:#1f77b4;opacity:0.4;"/>
   </g>
   <g id="patch_228">
    <path clip-path="url(#pc5c63559a1)" d="M 409.556687 512.64 
L 410.684743 512.64 
L 410.684743 128.865893 
L 409.556687 128.865893 
z
" style="fill:#1f77b4;opacity:0.4;"/>
   </g>
   <g id="patch_229">
    <path clip-path="url(#pc5c63559a1)" d="M 410.966757 512.64 
L 412.094813 512.64 
L 412.094813 120.308153 
L 410.966757 120.308153 
z
" style="fill:#1f77b4;opacity:0.4;"/>
   </g>
   <g id="patch_230">
    <path clip-path="url(#pc5c63559a1)" d="M 412.376827 512.64 
L 413.504883 512.64 
L 413.504883 122.2537 
L 412.376827 122.2537 
z
" style="fill:#1f77b4;opacity:0.4;"/>
   </g>
   <g id="patch_231">
    <path clip-path="url(#pc5c63559a1)" d="M 413.786897 512.64 
L 414.914954 512.64 
L 414.914954 124.427166 
L 413.786897 124.427166 
z
" style="fill:#1f77b4;opacity:0.4;"/>
   </g>
   <g id="patch_232">
    <path clip-path="url(#pc5c63559a1)" d="M 415.196968 512.64 
L 416.325024 512.64 
L 416.325024 110.707103 
L 415.196968 110.707103 
z
" style="fill:#1f77b4;opacity:0.4;"/>
   </g>
   <g id="patch_233">
    <path clip-path="url(#pc5c63559a1)" d="M 416.607038 512.64 
L 417.735094 512.64 
L 417.735094 107.82073 
L 416.607038 107.82073 
z
" style="fill:#1f77b4;opacity:0.4;"/>
   </g>
   <g id="patch_234">
    <path clip-path="url(#pc5c63559a1)" d="M 418.017108 512.64 
L 419.145164 512.64 
L 419.145164 112.559571 
L 418.017108 112.559571 
z
" style="fill:#1f77b4;opacity:0.4;"/>
   </g>
   <g id="patch_235">
    <path clip-path="url(#pc5c63559a1)" d="M 419.427178 512.64 
L 420.555234 512.64 
L 420.555234 107.105125 
L 419.427178 107.105125 
z
" style="fill:#1f77b4;opacity:0.4;"/>
   </g>
   <g id="patch_236">
    <path clip-path="url(#pc5c63559a1)" d="M 420.837248 512.64 
L 421.965304 512.64 
L 421.965304 111.00368 
L 420.837248 111.00368 
z
" style="fill:#1f77b4;opacity:0.4;"/>
   </g>
   <g id="patch_237">
    <path clip-path="url(#pc5c63559a1)" d="M 422.247318 512.64 
L 423.375374 512.64 
L 423.375374 106.002504 
L 422.247318 106.002504 
z
" style="fill:#1f77b4;opacity:0.4;"/>
   </g>
   <g id="patch_238">
    <path clip-path="url(#pc5c63559a1)" d="M 423.657388 512.64 
L 424.785444 512.64 
L 424.785444 106.958879 
L 423.657388 106.958879 
z
" style="fill:#1f77b4;opacity:0.4;"/>
   </g>
   <g id="patch_239">
    <path clip-path="url(#pc5c63559a1)" d="M 425.067458 512.64 
L 426.195515 512.64 
L 426.195515 109.513327 
L 425.067458 109.513327 
z
" style="fill:#1f77b4;opacity:0.4;"/>
   </g>
   <g id="patch_240">
    <path clip-path="url(#pc5c63559a1)" d="M 426.477529 512.64 
L 427.605585 512.64 
L 427.605585 112.121136 
L 426.477529 112.121136 
z
" style="fill:#1f77b4;opacity:0.4;"/>
   </g>
   <g id="patch_241">
    <path clip-path="url(#pc5c63559a1)" d="M 427.887599 512.64 
L 429.015655 512.64 
L 429.015655 113.066931 
L 427.887599 113.066931 
z
" style="fill:#1f77b4;opacity:0.4;"/>
   </g>
   <g id="patch_242">
    <path clip-path="url(#pc5c63559a1)" d="M 429.297669 512.64 
L 430.425725 512.64 
L 430.425725 108.11643 
L 429.297669 108.11643 
z
" style="fill:#1f77b4;opacity:0.4;"/>
   </g>
   <g id="patch_243">
    <path clip-path="url(#pc5c63559a1)" d="M 430.707739 512.64 
L 431.835795 512.64 
L 431.835795 105.615971 
L 430.707739 105.615971 
z
" style="fill:#1f77b4;opacity:0.4;"/>
   </g>
   <g id="patch_244">
    <path clip-path="url(#pc5c63559a1)" d="M 432.117809 512.64 
L 433.245865 512.64 
L 433.245865 111.111202 
L 432.117809 111.111202 
z
" style="fill:#1f77b4;opacity:0.4;"/>
   </g>
   <g id="patch_245">
    <path clip-path="url(#pc5c63559a1)" d="M 433.527879 512.64 
L 434.655935 512.64 
L 434.655935 107.660529 
L 433.527879 107.660529 
z
" style="fill:#1f77b4;opacity:0.4;"/>
   </g>
   <g id="patch_246">
    <path clip-path="url(#pc5c63559a1)" d="M 434.937949 512.64 
L 436.066005 512.64 
L 436.066005 112.706274 
L 434.937949 112.706274 
z
" style="fill:#1f77b4;opacity:0.4;"/>
   </g>
   <g id="patch_247">
    <path clip-path="url(#pc5c63559a1)" d="M 436.348019 512.64 
L 437.476076 512.64 
L 437.476076 110.213343 
L 436.348019 110.213343 
z
" style="fill:#1f77b4;opacity:0.4;"/>
   </g>
   <g id="patch_248">
    <path clip-path="url(#pc5c63559a1)" d="M 437.75809 512.64 
L 438.886146 512.64 
L 438.886146 109.053895 
L 437.75809 109.053895 
z
" style="fill:#1f77b4;opacity:0.4;"/>
   </g>
   <g id="patch_249">
    <path clip-path="url(#pc5c63559a1)" d="M 439.16816 512.64 
L 440.296216 512.64 
L 440.296216 104.818747 
L 439.16816 104.818747 
z
" style="fill:#1f77b4;opacity:0.4;"/>
   </g>
   <g id="patch_250">
    <path clip-path="url(#pc5c63559a1)" d="M 440.57823 512.64 
L 441.706286 512.64 
L 441.706286 99.939087 
L 440.57823 99.939087 
z
" style="fill:#1f77b4;opacity:0.4;"/>
   </g>
   <g id="patch_251">
    <path clip-path="url(#pc5c63559a1)" d="M 441.9883 512.64 
L 443.116356 512.64 
L 443.116356 93.867026 
L 441.9883 93.867026 
z
" style="fill:#1f77b4;opacity:0.4;"/>
   </g>
   <g id="patch_252">
    <path clip-path="url(#pc5c63559a1)" d="M 443.39837 512.64 
L 444.526426 512.64 
L 444.526426 97.660608 
L 443.39837 97.660608 
z
" style="fill:#1f77b4;opacity:0.4;"/>
   </g>
   <g id="patch_253">
    <path clip-path="url(#pc5c63559a1)" d="M 444.80844 512.64 
L 445.936496 512.64 
L 445.936496 96.997333 
L 444.80844 96.997333 
z
" style="fill:#1f77b4;opacity:0.4;"/>
   </g>
   <g id="patch_254">
    <path clip-path="url(#pc5c63559a1)" d="M 446.21851 512.64 
L 447.346566 512.64 
L 447.346566 91.42908 
L 446.21851 91.42908 
z
" style="fill:#1f77b4;opacity:0.4;"/>
   </g>
   <g id="patch_255">
    <path clip-path="url(#pc5c63559a1)" d="M 447.62858 512.64 
L 448.756637 512.64 
L 448.756637 93.341515 
L 447.62858 93.341515 
z
" style="fill:#1f77b4;opacity:0.4;"/>
   </g>
   <g id="patch_256">
    <path clip-path="url(#pc5c63559a1)" d="M 449.038651 512.64 
L 450.166707 512.64 
L 450.166707 97.699337 
L 449.038651 97.699337 
z
" style="fill:#1f77b4;opacity:0.4;"/>
   </g>
   <g id="patch_257">
    <path clip-path="url(#pc5c63559a1)" d="M 450.448721 512.64 
L 451.576777 512.64 
L 451.576777 102.072662 
L 450.448721 102.072662 
z
" style="fill:#1f77b4;opacity:0.4;"/>
   </g>
   <g id="patch_258">
    <path clip-path="url(#pc5c63559a1)" d="M 451.858791 512.64 
L 452.986847 512.64 
L 452.986847 99.354104 
L 451.858791 99.354104 
z
" style="fill:#1f77b4;opacity:0.4;"/>
   </g>
   <g id="patch_259">
    <path clip-path="url(#pc5c63559a1)" d="M 453.268861 512.64 
L 454.396917 512.64 
L 454.396917 96.035309 
L 453.268861 96.035309 
z
" style="fill:#1f77b4;opacity:0.4;"/>
   </g>
   <g id="patch_260">
    <path clip-path="url(#pc5c63559a1)" d="M 454.678931 512.64 
L 455.806987 512.64 
L 455.806987 97.564289 
L 454.678931 97.564289 
z
" style="fill:#1f77b4;opacity:0.4;"/>
   </g>
   <g id="patch_261">
    <path clip-path="url(#pc5c63559a1)" d="M 456.089001 512.64 
L 457.217057 512.64 
L 457.217057 93.463833 
L 456.089001 93.463833 
z
" style="fill:#1f77b4;opacity:0.4;"/>
   </g>
   <g id="patch_262">
    <path clip-path="url(#pc5c63559a1)" d="M 457.499071 512.64 
L 458.627127 512.64 
L 458.627127 90.24 
L 457.499071 90.24 
z
" style="fill:#1f77b4;opacity:0.4;"/>
   </g>
   <g id="patch_263">
    <path clip-path="url(#pc5c63559a1)" d="M 458.909141 512.64 
L 460.037198 512.64 
L 460.037198 95.715769 
L 458.909141 95.715769 
z
" style="fill:#1f77b4;opacity:0.4;"/>
   </g>
   <g id="patch_264">
    <path clip-path="url(#pc5c63559a1)" d="M 460.319212 512.64 
L 461.447268 512.64 
L 461.447268 98.624285 
L 460.319212 98.624285 
z
" style="fill:#1f77b4;opacity:0.4;"/>
   </g>
   <g id="patch_265">
    <path clip-path="url(#pc5c63559a1)" d="M 461.729282 512.64 
L 462.857338 512.64 
L 462.857338 99.550352 
L 461.729282 99.550352 
z
" style="fill:#1f77b4;opacity:0.4;"/>
   </g>
   <g id="patch_266">
    <path clip-path="url(#pc5c63559a1)" d="M 463.139352 512.64 
L 464.267408 512.64 
L 464.267408 98.314156 
L 463.139352 98.314156 
z
" style="fill:#1f77b4;opacity:0.4;"/>
   </g>
   <g id="patch_267">
    <path clip-path="url(#pc5c63559a1)" d="M 464.549422 512.64 
L 465.677478 512.64 
L 465.677478 93.182604 
L 464.549422 93.182604 
z
" style="fill:#1f77b4;opacity:0.4;"/>
   </g>
   <g id="patch_268">
    <path clip-path="url(#pc5c63559a1)" d="M 465.959492 512.64 
L 467.087548 512.64 
L 467.087548 93.367101 
L 465.959492 93.367101 
z
" style="fill:#1f77b4;opacity:0.4;"/>
   </g>
   <g id="patch_269">
    <path clip-path="url(#pc5c63559a1)" d="M 467.369562 512.64 
L 468.497618 512.64 
L 468.497618 96.307475 
L 467.369562 96.307475 
z
" style="fill:#1f77b4;opacity:0.4;"/>
   </g>
   <g id="patch_270">
    <path clip-path="url(#pc5c63559a1)" d="M 468.779632 512.64 
L 469.907688 512.64 
L 469.907688 96.654354 
L 468.779632 96.654354 
z
" style="fill:#1f77b4;opacity:0.4;"/>
   </g>
   <g id="patch_271">
    <path clip-path="url(#pc5c63559a1)" d="M 470.189702 512.64 
L 471.317759 512.64 
L 471.317759 101.194432 
L 470.189702 101.194432 
z
" style="fill:#1f77b4;opacity:0.4;"/>
   </g>
   <g id="patch_272">
    <path clip-path="url(#pc5c63559a1)" d="M 471.599773 512.64 
L 472.727829 512.64 
L 472.727829 98.964007 
L 471.599773 98.964007 
z
" style="fill:#1f77b4;opacity:0.4;"/>
   </g>
   <g id="patch_273">
    <path clip-path="url(#pc5c63559a1)" d="M 473.009843 512.64 
L 474.137899 512.64 
L 474.137899 102.144685 
L 473.009843 102.144685 
z
" style="fill:#1f77b4;opacity:0.4;"/>
   </g>
   <g id="patch_274">
    <path clip-path="url(#pc5c63559a1)" d="M 474.419913 512.64 
L 475.547969 512.64 
L 475.547969 97.413093 
L 474.419913 97.413093 
z
" style="fill:#1f77b4;opacity:0.4;"/>
   </g>
   <g id="patch_275">
    <path clip-path="url(#pc5c63559a1)" d="M 475.829983 512.64 
L 476.958039 512.64 
L 476.958039 97.684968 
L 475.829983 97.684968 
z
" style="fill:#1f77b4;opacity:0.4;"/>
   </g>
   <g id="patch_276">
    <path clip-path="url(#pc5c63559a1)" d="M 477.240053 512.64 
L 478.368109 512.64 
L 478.368109 100.35457 
L 477.240053 100.35457 
z
" style="fill:#1f77b4;opacity:0.4;"/>
   </g>
   <g id="patch_277">
    <path clip-path="url(#pc5c63559a1)" d="M 478.650123 512.64 
L 479.778179 512.64 
L 479.778179 97.750373 
L 478.650123 97.750373 
z
" style="fill:#1f77b4;opacity:0.4;"/>
   </g>
   <g id="patch_278">
    <path clip-path="url(#pc5c63559a1)" d="M 480.060193 512.64 
L 481.188249 512.64 
L 481.188249 102.929928 
L 480.060193 102.929928 
z
" style="fill:#1f77b4;opacity:0.4;"/>
   </g>
   <g id="patch_279">
    <path clip-path="url(#pc5c63559a1)" d="M 481.470263 512.64 
L 482.59832 512.64 
L 482.59832 100.004076 
L 481.470263 100.004076 
z
" style="fill:#1f77b4;opacity:0.4;"/>
   </g>
   <g id="patch_280">
    <path clip-path="url(#pc5c63559a1)" d="M 482.880334 512.64 
L 484.00839 512.64 
L 484.00839 104.18716 
L 482.880334 104.18716 
z
" style="fill:#1f77b4;opacity:0.4;"/>
   </g>
   <g id="patch_281">
    <path clip-path="url(#pc5c63559a1)" d="M 484.290404 512.64 
L 485.41846 512.64 
L 485.41846 109.586832 
L 484.290404 109.586832 
z
" style="fill:#1f77b4;opacity:0.4;"/>
   </g>
   <g id="patch_282">
    <path clip-path="url(#pc5c63559a1)" d="M 485.700474 512.64 
L 486.82853 512.64 
L 486.82853 112.346742 
L 485.700474 112.346742 
z
" style="fill:#1f77b4;opacity:0.4;"/>
   </g>
   <g id="patch_283">
    <path clip-path="url(#pc5c63559a1)" d="M 487.110544 512.64 
L 488.2386 512.64 
L 488.2386 120.972169 
L 487.110544 120.972169 
z
" style="fill:#1f77b4;opacity:0.4;"/>
   </g>
   <g id="patch_284">
    <path clip-path="url(#pc5c63559a1)" d="M 488.520614 512.64 
L 489.64867 512.64 
L 489.64867 120.351226 
L 488.520614 120.351226 
z
" style="fill:#1f77b4;opacity:0.4;"/>
   </g>
   <g id="patch_285">
    <path clip-path="url(#pc5c63559a1)" d="M 489.930684 512.64 
L 491.05874 512.64 
L 491.05874 123.937825 
L 489.930684 123.937825 
z
" style="fill:#1f77b4;opacity:0.4;"/>
   </g>
   <g id="patch_286">
    <path clip-path="url(#pc5c63559a1)" d="M 491.340754 512.64 
L 492.46881 512.64 
L 492.46881 120.833683 
L 491.340754 120.833683 
z
" style="fill:#1f77b4;opacity:0.4;"/>
   </g>
   <g id="patch_287">
    <path clip-path="url(#pc5c63559a1)" d="M 492.750824 512.64 
L 493.878881 512.64 
L 493.878881 116.79809 
L 492.750824 116.79809 
z
" style="fill:#1f77b4;opacity:0.4;"/>
   </g>
   <g id="patch_288">
    <path clip-path="url(#pc5c63559a1)" d="M 494.160895 512.64 
L 495.288951 512.64 
L 495.288951 117.634372 
L 494.160895 117.634372 
z
" style="fill:#1f77b4;opacity:0.4;"/>
   </g>
   <g id="patch_289">
    <path clip-path="url(#pc5c63559a1)" d="M 495.570965 512.64 
L 496.699021 512.64 
L 496.699021 113.655272 
L 495.570965 113.655272 
z
" style="fill:#1f77b4;opacity:0.4;"/>
   </g>
   <g id="patch_290">
    <path clip-path="url(#pc5c63559a1)" d="M 496.981035 512.64 
L 498.109091 512.64 
L 498.109091 121.925338 
L 496.981035 121.925338 
z
" style="fill:#1f77b4;opacity:0.4;"/>
   </g>
   <g id="matplotlib.axis_1">
    <g id="xtick_1">
     <g id="line2d_1">
      <path clip-path="url(#pc5c63559a1)" d="M 91.444867 512.64 
L 91.444867 69.12 
" style="fill:none;stroke:#b0b0b0;stroke-linecap:square;stroke-width:0.8;"/>
     </g>
     <g id="line2d_2">
      <defs>
       <path d="M 0 0 
L 0 3.5 
" id="mab4fc54779" style="stroke:#000000;stroke-width:0.8;"/>
      </defs>
      <g>
       <use style="stroke:#000000;stroke-width:0.8;" x="91.444867" xlink:href="#mab4fc54779" y="512.64"/>
      </g>
     </g>
     <g id="text_1">
      <!-- 0 -->
      <defs>
       <path d="M 31.78125 66.40625 
Q 24.171875 66.40625 20.328125 58.90625 
Q 16.5 51.421875 16.5 36.375 
Q 16.5 21.390625 20.328125 13.890625 
Q 24.171875 6.390625 31.78125 6.390625 
Q 39.453125 6.390625 43.28125 13.890625 
Q 47.125 21.390625 47.125 36.375 
Q 47.125 51.421875 43.28125 58.90625 
Q 39.453125 66.40625 31.78125 66.40625 
z
M 31.78125 74.21875 
Q 44.046875 74.21875 50.515625 64.515625 
Q 56.984375 54.828125 56.984375 36.375 
Q 56.984375 17.96875 50.515625 8.265625 
Q 44.046875 -1.421875 31.78125 -1.421875 
Q 19.53125 -1.421875 13.0625 8.265625 
Q 6.59375 17.96875 6.59375 36.375 
Q 6.59375 54.828125 13.0625 64.515625 
Q 19.53125 74.21875 31.78125 74.21875 
z
" id="DejaVuSans-48"/>
      </defs>
      <g transform="translate(88.263617 527.238438)scale(0.1 -0.1)">
       <use xlink:href="#DejaVuSans-48"/>
      </g>
     </g>
    </g>
    <g id="xtick_2">
     <g id="line2d_3">
      <path clip-path="url(#pc5c63559a1)" d="M 161.948373 512.64 
L 161.948373 69.12 
" style="fill:none;stroke:#b0b0b0;stroke-linecap:square;stroke-width:0.8;"/>
     </g>
     <g id="line2d_4">
      <g>
       <use style="stroke:#000000;stroke-width:0.8;" x="161.948373" xlink:href="#mab4fc54779" y="512.64"/>
      </g>
     </g>
     <g id="text_2">
      <!-- 50 -->
      <defs>
       <path d="M 10.796875 72.90625 
L 49.515625 72.90625 
L 49.515625 64.59375 
L 19.828125 64.59375 
L 19.828125 46.734375 
Q 21.96875 47.46875 24.109375 47.828125 
Q 26.265625 48.1875 28.421875 48.1875 
Q 40.625 48.1875 47.75 41.5 
Q 54.890625 34.8125 54.890625 23.390625 
Q 54.890625 11.625 47.5625 5.09375 
Q 40.234375 -1.421875 26.90625 -1.421875 
Q 22.3125 -1.421875 17.546875 -0.640625 
Q 12.796875 0.140625 7.71875 1.703125 
L 7.71875 11.625 
Q 12.109375 9.234375 16.796875 8.0625 
Q 21.484375 6.890625 26.703125 6.890625 
Q 35.15625 6.890625 40.078125 11.328125 
Q 45.015625 15.765625 45.015625 23.390625 
Q 45.015625 31 40.078125 35.4375 
Q 35.15625 39.890625 26.703125 39.890625 
Q 22.75 39.890625 18.8125 39.015625 
Q 14.890625 38.140625 10.796875 36.28125 
z
" id="DejaVuSans-53"/>
      </defs>
      <g transform="translate(155.585873 527.238438)scale(0.1 -0.1)">
       <use xlink:href="#DejaVuSans-53"/>
       <use x="63.623047" xlink:href="#DejaVuSans-48"/>
      </g>
     </g>
    </g>
    <g id="xtick_3">
     <g id="line2d_5">
      <path clip-path="url(#pc5c63559a1)" d="M 232.451879 512.64 
L 232.451879 69.12 
" style="fill:none;stroke:#b0b0b0;stroke-linecap:square;stroke-width:0.8;"/>
     </g>
     <g id="line2d_6">
      <g>
       <use style="stroke:#000000;stroke-width:0.8;" x="232.451879" xlink:href="#mab4fc54779" y="512.64"/>
      </g>
     </g>
     <g id="text_3">
      <!-- 100 -->
      <defs>
       <path d="M 12.40625 8.296875 
L 28.515625 8.296875 
L 28.515625 63.921875 
L 10.984375 60.40625 
L 10.984375 69.390625 
L 28.421875 72.90625 
L 38.28125 72.90625 
L 38.28125 8.296875 
L 54.390625 8.296875 
L 54.390625 0 
L 12.40625 0 
z
" id="DejaVuSans-49"/>
      </defs>
      <g transform="translate(222.908129 527.238438)scale(0.1 -0.1)">
       <use xlink:href="#DejaVuSans-49"/>
       <use x="63.623047" xlink:href="#DejaVuSans-48"/>
       <use x="127.246094" xlink:href="#DejaVuSans-48"/>
      </g>
     </g>
    </g>
    <g id="xtick_4">
     <g id="line2d_7">
      <path clip-path="url(#pc5c63559a1)" d="M 302.955386 512.64 
L 302.955386 69.12 
" style="fill:none;stroke:#b0b0b0;stroke-linecap:square;stroke-width:0.8;"/>
     </g>
     <g id="line2d_8">
      <g>
       <use style="stroke:#000000;stroke-width:0.8;" x="302.955386" xlink:href="#mab4fc54779" y="512.64"/>
      </g>
     </g>
     <g id="text_4">
      <!-- 150 -->
      <g transform="translate(293.411636 527.238438)scale(0.1 -0.1)">
       <use xlink:href="#DejaVuSans-49"/>
       <use x="63.623047" xlink:href="#DejaVuSans-53"/>
       <use x="127.246094" xlink:href="#DejaVuSans-48"/>
      </g>
     </g>
    </g>
    <g id="xtick_5">
     <g id="line2d_9">
      <path clip-path="url(#pc5c63559a1)" d="M 373.458892 512.64 
L 373.458892 69.12 
" style="fill:none;stroke:#b0b0b0;stroke-linecap:square;stroke-width:0.8;"/>
     </g>
     <g id="line2d_10">
      <g>
       <use style="stroke:#000000;stroke-width:0.8;" x="373.458892" xlink:href="#mab4fc54779" y="512.64"/>
      </g>
     </g>
     <g id="text_5">
      <!-- 200 -->
      <defs>
       <path d="M 19.1875 8.296875 
L 53.609375 8.296875 
L 53.609375 0 
L 7.328125 0 
L 7.328125 8.296875 
Q 12.9375 14.109375 22.625 23.890625 
Q 32.328125 33.6875 34.8125 36.53125 
Q 39.546875 41.84375 41.421875 45.53125 
Q 43.3125 49.21875 43.3125 52.78125 
Q 43.3125 58.59375 39.234375 62.25 
Q 35.15625 65.921875 28.609375 65.921875 
Q 23.96875 65.921875 18.8125 64.3125 
Q 13.671875 62.703125 7.8125 59.421875 
L 7.8125 69.390625 
Q 13.765625 71.78125 18.9375 73 
Q 24.125 74.21875 28.421875 74.21875 
Q 39.75 74.21875 46.484375 68.546875 
Q 53.21875 62.890625 53.21875 53.421875 
Q 53.21875 48.921875 51.53125 44.890625 
Q 49.859375 40.875 45.40625 35.40625 
Q 44.1875 33.984375 37.640625 27.21875 
Q 31.109375 20.453125 19.1875 8.296875 
z
" id="DejaVuSans-50"/>
      </defs>
      <g transform="translate(363.915142 527.238438)scale(0.1 -0.1)">
       <use xlink:href="#DejaVuSans-50"/>
       <use x="63.623047" xlink:href="#DejaVuSans-48"/>
       <use x="127.246094" xlink:href="#DejaVuSans-48"/>
      </g>
     </g>
    </g>
    <g id="xtick_6">
     <g id="line2d_11">
      <path clip-path="url(#pc5c63559a1)" d="M 443.962398 512.64 
L 443.962398 69.12 
" style="fill:none;stroke:#b0b0b0;stroke-linecap:square;stroke-width:0.8;"/>
     </g>
     <g id="line2d_12">
      <g>
       <use style="stroke:#000000;stroke-width:0.8;" x="443.962398" xlink:href="#mab4fc54779" y="512.64"/>
      </g>
     </g>
     <g id="text_6">
      <!-- 250 -->
      <g transform="translate(434.418648 527.238438)scale(0.1 -0.1)">
       <use xlink:href="#DejaVuSans-50"/>
       <use x="63.623047" xlink:href="#DejaVuSans-53"/>
       <use x="127.246094" xlink:href="#DejaVuSans-48"/>
      </g>
     </g>
    </g>
    <g id="xtick_7">
     <g id="line2d_13">
      <path clip-path="url(#pc5c63559a1)" d="M 514.465904 512.64 
L 514.465904 69.12 
" style="fill:none;stroke:#b0b0b0;stroke-linecap:square;stroke-width:0.8;"/>
     </g>
     <g id="line2d_14">
      <g>
       <use style="stroke:#000000;stroke-width:0.8;" x="514.465904" xlink:href="#mab4fc54779" y="512.64"/>
      </g>
     </g>
     <g id="text_7">
      <!-- 300 -->
      <defs>
       <path d="M 40.578125 39.3125 
Q 47.65625 37.796875 51.625 33 
Q 55.609375 28.21875 55.609375 21.1875 
Q 55.609375 10.40625 48.1875 4.484375 
Q 40.765625 -1.421875 27.09375 -1.421875 
Q 22.515625 -1.421875 17.65625 -0.515625 
Q 12.796875 0.390625 7.625 2.203125 
L 7.625 11.71875 
Q 11.71875 9.328125 16.59375 8.109375 
Q 21.484375 6.890625 26.8125 6.890625 
Q 36.078125 6.890625 40.9375 10.546875 
Q 45.796875 14.203125 45.796875 21.1875 
Q 45.796875 27.640625 41.28125 31.265625 
Q 36.765625 34.90625 28.71875 34.90625 
L 20.21875 34.90625 
L 20.21875 43.015625 
L 29.109375 43.015625 
Q 36.375 43.015625 40.234375 45.921875 
Q 44.09375 48.828125 44.09375 54.296875 
Q 44.09375 59.90625 40.109375 62.90625 
Q 36.140625 65.921875 28.71875 65.921875 
Q 24.65625 65.921875 20.015625 65.03125 
Q 15.375 64.15625 9.8125 62.3125 
L 9.8125 71.09375 
Q 15.4375 72.65625 20.34375 73.4375 
Q 25.25 74.21875 29.59375 74.21875 
Q 40.828125 74.21875 47.359375 69.109375 
Q 53.90625 64.015625 53.90625 55.328125 
Q 53.90625 49.265625 50.4375 45.09375 
Q 46.96875 40.921875 40.578125 39.3125 
z
" id="DejaVuSans-51"/>
      </defs>
      <g transform="translate(504.922154 527.238438)scale(0.1 -0.1)">
       <use xlink:href="#DejaVuSans-51"/>
       <use x="63.623047" xlink:href="#DejaVuSans-48"/>
       <use x="127.246094" xlink:href="#DejaVuSans-48"/>
      </g>
     </g>
    </g>
    <g id="text_8">
     <!-- Timestep -->
     <defs>
      <path d="M -0.296875 72.90625 
L 61.375 72.90625 
L 61.375 64.59375 
L 35.5 64.59375 
L 35.5 0 
L 25.59375 0 
L 25.59375 64.59375 
L -0.296875 64.59375 
z
" id="DejaVuSans-84"/>
      <path d="M 9.421875 54.6875 
L 18.40625 54.6875 
L 18.40625 0 
L 9.421875 0 
z
M 9.421875 75.984375 
L 18.40625 75.984375 
L 18.40625 64.59375 
L 9.421875 64.59375 
z
" id="DejaVuSans-105"/>
      <path d="M 52 44.1875 
Q 55.375 50.25 60.0625 53.125 
Q 64.75 56 71.09375 56 
Q 79.640625 56 84.28125 50.015625 
Q 88.921875 44.046875 88.921875 33.015625 
L 88.921875 0 
L 79.890625 0 
L 79.890625 32.71875 
Q 79.890625 40.578125 77.09375 44.375 
Q 74.3125 48.1875 68.609375 48.1875 
Q 61.625 48.1875 57.5625 43.546875 
Q 53.515625 38.921875 53.515625 30.90625 
L 53.515625 0 
L 44.484375 0 
L 44.484375 32.71875 
Q 44.484375 40.625 41.703125 44.40625 
Q 38.921875 48.1875 33.109375 48.1875 
Q 26.21875 48.1875 22.15625 43.53125 
Q 18.109375 38.875 18.109375 30.90625 
L 18.109375 0 
L 9.078125 0 
L 9.078125 54.6875 
L 18.109375 54.6875 
L 18.109375 46.1875 
Q 21.1875 51.21875 25.484375 53.609375 
Q 29.78125 56 35.6875 56 
Q 41.65625 56 45.828125 52.96875 
Q 50 49.953125 52 44.1875 
z
" id="DejaVuSans-109"/>
      <path d="M 56.203125 29.59375 
L 56.203125 25.203125 
L 14.890625 25.203125 
Q 15.484375 15.921875 20.484375 11.0625 
Q 25.484375 6.203125 34.421875 6.203125 
Q 39.59375 6.203125 44.453125 7.46875 
Q 49.3125 8.734375 54.109375 11.28125 
L 54.109375 2.78125 
Q 49.265625 0.734375 44.1875 -0.34375 
Q 39.109375 -1.421875 33.890625 -1.421875 
Q 20.796875 -1.421875 13.15625 6.1875 
Q 5.515625 13.8125 5.515625 26.8125 
Q 5.515625 40.234375 12.765625 48.109375 
Q 20.015625 56 32.328125 56 
Q 43.359375 56 49.78125 48.890625 
Q 56.203125 41.796875 56.203125 29.59375 
z
M 47.21875 32.234375 
Q 47.125 39.59375 43.09375 43.984375 
Q 39.0625 48.390625 32.421875 48.390625 
Q 24.90625 48.390625 20.390625 44.140625 
Q 15.875 39.890625 15.1875 32.171875 
z
" id="DejaVuSans-101"/>
      <path d="M 44.28125 53.078125 
L 44.28125 44.578125 
Q 40.484375 46.53125 36.375 47.5 
Q 32.28125 48.484375 27.875 48.484375 
Q 21.1875 48.484375 17.84375 46.4375 
Q 14.5 44.390625 14.5 40.28125 
Q 14.5 37.15625 16.890625 35.375 
Q 19.28125 33.59375 26.515625 31.984375 
L 29.59375 31.296875 
Q 39.15625 29.25 43.1875 25.515625 
Q 47.21875 21.78125 47.21875 15.09375 
Q 47.21875 7.46875 41.1875 3.015625 
Q 35.15625 -1.421875 24.609375 -1.421875 
Q 20.21875 -1.421875 15.453125 -0.5625 
Q 10.6875 0.296875 5.421875 2 
L 5.421875 11.28125 
Q 10.40625 8.6875 15.234375 7.390625 
Q 20.0625 6.109375 24.8125 6.109375 
Q 31.15625 6.109375 34.5625 8.28125 
Q 37.984375 10.453125 37.984375 14.40625 
Q 37.984375 18.0625 35.515625 20.015625 
Q 33.0625 21.96875 24.703125 23.78125 
L 21.578125 24.515625 
Q 13.234375 26.265625 9.515625 29.90625 
Q 5.8125 33.546875 5.8125 39.890625 
Q 5.8125 47.609375 11.28125 51.796875 
Q 16.75 56 26.8125 56 
Q 31.78125 56 36.171875 55.265625 
Q 40.578125 54.546875 44.28125 53.078125 
z
" id="DejaVuSans-115"/>
      <path d="M 18.3125 70.21875 
L 18.3125 54.6875 
L 36.8125 54.6875 
L 36.8125 47.703125 
L 18.3125 47.703125 
L 18.3125 18.015625 
Q 18.3125 11.328125 20.140625 9.421875 
Q 21.96875 7.515625 27.59375 7.515625 
L 36.8125 7.515625 
L 36.8125 0 
L 27.59375 0 
Q 17.1875 0 13.234375 3.875 
Q 9.28125 7.765625 9.28125 18.015625 
L 9.28125 47.703125 
L 2.6875 47.703125 
L 2.6875 54.6875 
L 9.28125 54.6875 
L 9.28125 70.21875 
z
" id="DejaVuSans-116"/>
      <path d="M 18.109375 8.203125 
L 18.109375 -20.796875 
L 9.078125 -20.796875 
L 9.078125 54.6875 
L 18.109375 54.6875 
L 18.109375 46.390625 
Q 20.953125 51.265625 25.265625 53.625 
Q 29.59375 56 35.59375 56 
Q 45.5625 56 51.78125 48.09375 
Q 58.015625 40.1875 58.015625 27.296875 
Q 58.015625 14.40625 51.78125 6.484375 
Q 45.5625 -1.421875 35.59375 -1.421875 
Q 29.59375 -1.421875 25.265625 0.953125 
Q 20.953125 3.328125 18.109375 8.203125 
z
M 48.6875 27.296875 
Q 48.6875 37.203125 44.609375 42.84375 
Q 40.53125 48.484375 33.40625 48.484375 
Q 26.265625 48.484375 22.1875 42.84375 
Q 18.109375 37.203125 18.109375 27.296875 
Q 18.109375 17.390625 22.1875 11.75 
Q 26.265625 6.109375 33.40625 6.109375 
Q 40.53125 6.109375 44.609375 11.75 
Q 48.6875 17.390625 48.6875 27.296875 
z
" id="DejaVuSans-112"/>
     </defs>
     <g transform="translate(271.996875 540.916563)scale(0.1 -0.1)">
      <use xlink:href="#DejaVuSans-84"/>
      <use x="61.037109" xlink:href="#DejaVuSans-105"/>
      <use x="88.820312" xlink:href="#DejaVuSans-109"/>
      <use x="186.232422" xlink:href="#DejaVuSans-101"/>
      <use x="247.755859" xlink:href="#DejaVuSans-115"/>
      <use x="299.855469" xlink:href="#DejaVuSans-116"/>
      <use x="339.064453" xlink:href="#DejaVuSans-101"/>
      <use x="400.587891" xlink:href="#DejaVuSans-112"/>
     </g>
    </g>
   </g>
   <g id="matplotlib.axis_2">
    <g id="ytick_1">
     <g id="line2d_15">
      <path clip-path="url(#pc5c63559a1)" d="M 72 512.64 
L 518.4 512.64 
" style="fill:none;stroke:#b0b0b0;stroke-linecap:square;stroke-width:0.8;"/>
     </g>
     <g id="line2d_16">
      <defs>
       <path d="M 0 0 
L -3.5 0 
" id="m258308bef8" style="stroke:#000000;stroke-width:0.8;"/>
      </defs>
      <g>
       <use style="stroke:#000000;stroke-width:0.8;" x="72" xlink:href="#m258308bef8" y="512.64"/>
      </g>
     </g>
     <g id="text_9">
      <!-- 0.0 -->
      <defs>
       <path d="M 10.6875 12.40625 
L 21 12.40625 
L 21 0 
L 10.6875 0 
z
" id="DejaVuSans-46"/>
      </defs>
      <g transform="translate(49.096875 516.439219)scale(0.1 -0.1)">
       <use xlink:href="#DejaVuSans-48"/>
       <use x="63.623047" xlink:href="#DejaVuSans-46"/>
       <use x="95.410156" xlink:href="#DejaVuSans-48"/>
      </g>
     </g>
    </g>
    <g id="ytick_2">
     <g id="line2d_17">
      <path clip-path="url(#pc5c63559a1)" d="M 72 457.609614 
L 518.4 457.609614 
" style="fill:none;stroke:#b0b0b0;stroke-linecap:square;stroke-width:0.8;"/>
     </g>
     <g id="line2d_18">
      <g>
       <use style="stroke:#000000;stroke-width:0.8;" x="72" xlink:href="#m258308bef8" y="457.609614"/>
      </g>
     </g>
     <g id="text_10">
      <!-- 0.5 -->
      <g transform="translate(49.096875 461.408833)scale(0.1 -0.1)">
       <use xlink:href="#DejaVuSans-48"/>
       <use x="63.623047" xlink:href="#DejaVuSans-46"/>
       <use x="95.410156" xlink:href="#DejaVuSans-53"/>
      </g>
     </g>
    </g>
    <g id="ytick_3">
     <g id="line2d_19">
      <path clip-path="url(#pc5c63559a1)" d="M 72 402.579228 
L 518.4 402.579228 
" style="fill:none;stroke:#b0b0b0;stroke-linecap:square;stroke-width:0.8;"/>
     </g>
     <g id="line2d_20">
      <g>
       <use style="stroke:#000000;stroke-width:0.8;" x="72" xlink:href="#m258308bef8" y="402.579228"/>
      </g>
     </g>
     <g id="text_11">
      <!-- 1.0 -->
      <g transform="translate(49.096875 406.378447)scale(0.1 -0.1)">
       <use xlink:href="#DejaVuSans-49"/>
       <use x="63.623047" xlink:href="#DejaVuSans-46"/>
       <use x="95.410156" xlink:href="#DejaVuSans-48"/>
      </g>
     </g>
    </g>
    <g id="ytick_4">
     <g id="line2d_21">
      <path clip-path="url(#pc5c63559a1)" d="M 72 347.548842 
L 518.4 347.548842 
" style="fill:none;stroke:#b0b0b0;stroke-linecap:square;stroke-width:0.8;"/>
     </g>
     <g id="line2d_22">
      <g>
       <use style="stroke:#000000;stroke-width:0.8;" x="72" xlink:href="#m258308bef8" y="347.548842"/>
      </g>
     </g>
     <g id="text_12">
      <!-- 1.5 -->
      <g transform="translate(49.096875 351.348061)scale(0.1 -0.1)">
       <use xlink:href="#DejaVuSans-49"/>
       <use x="63.623047" xlink:href="#DejaVuSans-46"/>
       <use x="95.410156" xlink:href="#DejaVuSans-53"/>
      </g>
     </g>
    </g>
    <g id="ytick_5">
     <g id="line2d_23">
      <path clip-path="url(#pc5c63559a1)" d="M 72 292.518456 
L 518.4 292.518456 
" style="fill:none;stroke:#b0b0b0;stroke-linecap:square;stroke-width:0.8;"/>
     </g>
     <g id="line2d_24">
      <g>
       <use style="stroke:#000000;stroke-width:0.8;" x="72" xlink:href="#m258308bef8" y="292.518456"/>
      </g>
     </g>
     <g id="text_13">
      <!-- 2.0 -->
      <g transform="translate(49.096875 296.317675)scale(0.1 -0.1)">
       <use xlink:href="#DejaVuSans-50"/>
       <use x="63.623047" xlink:href="#DejaVuSans-46"/>
       <use x="95.410156" xlink:href="#DejaVuSans-48"/>
      </g>
     </g>
    </g>
    <g id="ytick_6">
     <g id="line2d_25">
      <path clip-path="url(#pc5c63559a1)" d="M 72 237.48807 
L 518.4 237.48807 
" style="fill:none;stroke:#b0b0b0;stroke-linecap:square;stroke-width:0.8;"/>
     </g>
     <g id="line2d_26">
      <g>
       <use style="stroke:#000000;stroke-width:0.8;" x="72" xlink:href="#m258308bef8" y="237.48807"/>
      </g>
     </g>
     <g id="text_14">
      <!-- 2.5 -->
      <g transform="translate(49.096875 241.287289)scale(0.1 -0.1)">
       <use xlink:href="#DejaVuSans-50"/>
       <use x="63.623047" xlink:href="#DejaVuSans-46"/>
       <use x="95.410156" xlink:href="#DejaVuSans-53"/>
      </g>
     </g>
    </g>
    <g id="ytick_7">
     <g id="line2d_27">
      <path clip-path="url(#pc5c63559a1)" d="M 72 182.457685 
L 518.4 182.457685 
" style="fill:none;stroke:#b0b0b0;stroke-linecap:square;stroke-width:0.8;"/>
     </g>
     <g id="line2d_28">
      <g>
       <use style="stroke:#000000;stroke-width:0.8;" x="72" xlink:href="#m258308bef8" y="182.457685"/>
      </g>
     </g>
     <g id="text_15">
      <!-- 3.0 -->
      <g transform="translate(49.096875 186.256903)scale(0.1 -0.1)">
       <use xlink:href="#DejaVuSans-51"/>
       <use x="63.623047" xlink:href="#DejaVuSans-46"/>
       <use x="95.410156" xlink:href="#DejaVuSans-48"/>
      </g>
     </g>
    </g>
    <g id="ytick_8">
     <g id="line2d_29">
      <path clip-path="url(#pc5c63559a1)" d="M 72 127.427299 
L 518.4 127.427299 
" style="fill:none;stroke:#b0b0b0;stroke-linecap:square;stroke-width:0.8;"/>
     </g>
     <g id="line2d_30">
      <g>
       <use style="stroke:#000000;stroke-width:0.8;" x="72" xlink:href="#m258308bef8" y="127.427299"/>
      </g>
     </g>
     <g id="text_16">
      <!-- 3.5 -->
      <g transform="translate(49.096875 131.226517)scale(0.1 -0.1)">
       <use xlink:href="#DejaVuSans-51"/>
       <use x="63.623047" xlink:href="#DejaVuSans-46"/>
       <use x="95.410156" xlink:href="#DejaVuSans-53"/>
      </g>
     </g>
    </g>
    <g id="ytick_9">
     <g id="line2d_31">
      <path clip-path="url(#pc5c63559a1)" d="M 72 72.396913 
L 518.4 72.396913 
" style="fill:none;stroke:#b0b0b0;stroke-linecap:square;stroke-width:0.8;"/>
     </g>
     <g id="line2d_32">
      <g>
       <use style="stroke:#000000;stroke-width:0.8;" x="72" xlink:href="#m258308bef8" y="72.396913"/>
      </g>
     </g>
     <g id="text_17">
      <!-- 4.0 -->
      <defs>
       <path d="M 37.796875 64.3125 
L 12.890625 25.390625 
L 37.796875 25.390625 
z
M 35.203125 72.90625 
L 47.609375 72.90625 
L 47.609375 25.390625 
L 58.015625 25.390625 
L 58.015625 17.1875 
L 47.609375 17.1875 
L 47.609375 0 
L 37.796875 0 
L 37.796875 17.1875 
L 4.890625 17.1875 
L 4.890625 26.703125 
z
" id="DejaVuSans-52"/>
      </defs>
      <g transform="translate(49.096875 76.196131)scale(0.1 -0.1)">
       <use xlink:href="#DejaVuSans-52"/>
       <use x="63.623047" xlink:href="#DejaVuSans-46"/>
       <use x="95.410156" xlink:href="#DejaVuSans-48"/>
      </g>
     </g>
    </g>
    <g id="text_18">
     <!-- MWs -->
     <defs>
      <path d="M 9.8125 72.90625 
L 24.515625 72.90625 
L 43.109375 23.296875 
L 61.8125 72.90625 
L 76.515625 72.90625 
L 76.515625 0 
L 66.890625 0 
L 66.890625 64.015625 
L 48.09375 14.015625 
L 38.1875 14.015625 
L 19.390625 64.015625 
L 19.390625 0 
L 9.8125 0 
z
" id="DejaVuSans-77"/>
      <path d="M 3.328125 72.90625 
L 13.28125 72.90625 
L 28.609375 11.28125 
L 43.890625 72.90625 
L 54.984375 72.90625 
L 70.3125 11.28125 
L 85.59375 72.90625 
L 95.609375 72.90625 
L 77.296875 0 
L 64.890625 0 
L 49.515625 63.28125 
L 33.984375 0 
L 21.578125 0 
z
" id="DejaVuSans-87"/>
     </defs>
     <g transform="translate(43.017187 302.7425)rotate(-90)scale(0.1 -0.1)">
      <use xlink:href="#DejaVuSans-77"/>
      <use x="86.279297" xlink:href="#DejaVuSans-87"/>
      <use x="185.15625" xlink:href="#DejaVuSans-115"/>
     </g>
    </g>
   </g>
   <g id="patch_291">
    <path d="M 72 512.64 
L 72 69.12 
" style="fill:none;stroke:#000000;stroke-linecap:square;stroke-linejoin:miter;stroke-width:0.8;"/>
   </g>
   <g id="patch_292">
    <path d="M 518.4 512.64 
L 518.4 69.12 
" style="fill:none;stroke:#000000;stroke-linecap:square;stroke-linejoin:miter;stroke-width:0.8;"/>
   </g>
   <g id="patch_293">
    <path d="M 72 512.64 
L 518.4 512.64 
" style="fill:none;stroke:#000000;stroke-linecap:square;stroke-linejoin:miter;stroke-width:0.8;"/>
   </g>
   <g id="patch_294">
    <path d="M 72 69.12 
L 518.4 69.12 
" style="fill:none;stroke:#000000;stroke-linecap:square;stroke-linejoin:miter;stroke-width:0.8;"/>
   </g>
   <g id="text_19">
    <!-- Generation 1 -->
    <defs>
     <path d="M 59.515625 10.40625 
L 59.515625 29.984375 
L 43.40625 29.984375 
L 43.40625 38.09375 
L 69.28125 38.09375 
L 69.28125 6.78125 
Q 63.578125 2.734375 56.6875 0.65625 
Q 49.8125 -1.421875 42 -1.421875 
Q 24.90625 -1.421875 15.25 8.5625 
Q 5.609375 18.5625 5.609375 36.375 
Q 5.609375 54.25 15.25 64.234375 
Q 24.90625 74.21875 42 74.21875 
Q 49.125 74.21875 55.546875 72.453125 
Q 61.96875 70.703125 67.390625 67.28125 
L 67.390625 56.78125 
Q 61.921875 61.421875 55.765625 63.765625 
Q 49.609375 66.109375 42.828125 66.109375 
Q 29.4375 66.109375 22.71875 58.640625 
Q 16.015625 51.171875 16.015625 36.375 
Q 16.015625 21.625 22.71875 14.15625 
Q 29.4375 6.6875 42.828125 6.6875 
Q 48.046875 6.6875 52.140625 7.59375 
Q 56.25 8.5 59.515625 10.40625 
z
" id="DejaVuSans-71"/>
     <path d="M 54.890625 33.015625 
L 54.890625 0 
L 45.90625 0 
L 45.90625 32.71875 
Q 45.90625 40.484375 42.875 44.328125 
Q 39.84375 48.1875 33.796875 48.1875 
Q 26.515625 48.1875 22.3125 43.546875 
Q 18.109375 38.921875 18.109375 30.90625 
L 18.109375 0 
L 9.078125 0 
L 9.078125 54.6875 
L 18.109375 54.6875 
L 18.109375 46.1875 
Q 21.34375 51.125 25.703125 53.5625 
Q 30.078125 56 35.796875 56 
Q 45.21875 56 50.046875 50.171875 
Q 54.890625 44.34375 54.890625 33.015625 
z
" id="DejaVuSans-110"/>
     <path d="M 41.109375 46.296875 
Q 39.59375 47.171875 37.8125 47.578125 
Q 36.03125 48 33.890625 48 
Q 26.265625 48 22.1875 43.046875 
Q 18.109375 38.09375 18.109375 28.8125 
L 18.109375 0 
L 9.078125 0 
L 9.078125 54.6875 
L 18.109375 54.6875 
L 18.109375 46.1875 
Q 20.953125 51.171875 25.484375 53.578125 
Q 30.03125 56 36.53125 56 
Q 37.453125 56 38.578125 55.875 
Q 39.703125 55.765625 41.0625 55.515625 
z
" id="DejaVuSans-114"/>
     <path d="M 34.28125 27.484375 
Q 23.390625 27.484375 19.1875 25 
Q 14.984375 22.515625 14.984375 16.5 
Q 14.984375 11.71875 18.140625 8.90625 
Q 21.296875 6.109375 26.703125 6.109375 
Q 34.1875 6.109375 38.703125 11.40625 
Q 43.21875 16.703125 43.21875 25.484375 
L 43.21875 27.484375 
z
M 52.203125 31.203125 
L 52.203125 0 
L 43.21875 0 
L 43.21875 8.296875 
Q 40.140625 3.328125 35.546875 0.953125 
Q 30.953125 -1.421875 24.3125 -1.421875 
Q 15.921875 -1.421875 10.953125 3.296875 
Q 6 8.015625 6 15.921875 
Q 6 25.140625 12.171875 29.828125 
Q 18.359375 34.515625 30.609375 34.515625 
L 43.21875 34.515625 
L 43.21875 35.40625 
Q 43.21875 41.609375 39.140625 45 
Q 35.0625 48.390625 27.6875 48.390625 
Q 23 48.390625 18.546875 47.265625 
Q 14.109375 46.140625 10.015625 43.890625 
L 10.015625 52.203125 
Q 14.9375 54.109375 19.578125 55.046875 
Q 24.21875 56 28.609375 56 
Q 40.484375 56 46.34375 49.84375 
Q 52.203125 43.703125 52.203125 31.203125 
z
" id="DejaVuSans-97"/>
     <path d="M 30.609375 48.390625 
Q 23.390625 48.390625 19.1875 42.75 
Q 14.984375 37.109375 14.984375 27.296875 
Q 14.984375 17.484375 19.15625 11.84375 
Q 23.34375 6.203125 30.609375 6.203125 
Q 37.796875 6.203125 41.984375 11.859375 
Q 46.1875 17.53125 46.1875 27.296875 
Q 46.1875 37.015625 41.984375 42.703125 
Q 37.796875 48.390625 30.609375 48.390625 
z
M 30.609375 56 
Q 42.328125 56 49.015625 48.375 
Q 55.71875 40.765625 55.71875 27.296875 
Q 55.71875 13.875 49.015625 6.21875 
Q 42.328125 -1.421875 30.609375 -1.421875 
Q 18.84375 -1.421875 12.171875 6.21875 
Q 5.515625 13.875 5.515625 27.296875 
Q 5.515625 40.765625 12.171875 48.375 
Q 18.84375 56 30.609375 56 
z
" id="DejaVuSans-111"/>
     <path id="DejaVuSans-32"/>
    </defs>
    <g transform="translate(256.004062 63.12)scale(0.12 -0.12)">
     <use xlink:href="#DejaVuSans-71"/>
     <use x="77.490234" xlink:href="#DejaVuSans-101"/>
     <use x="139.013672" xlink:href="#DejaVuSans-110"/>
     <use x="202.392578" xlink:href="#DejaVuSans-101"/>
     <use x="263.916016" xlink:href="#DejaVuSans-114"/>
     <use x="305.029297" xlink:href="#DejaVuSans-97"/>
     <use x="366.308594" xlink:href="#DejaVuSans-116"/>
     <use x="405.517578" xlink:href="#DejaVuSans-105"/>
     <use x="433.300781" xlink:href="#DejaVuSans-111"/>
     <use x="494.482422" xlink:href="#DejaVuSans-110"/>
     <use x="557.861328" xlink:href="#DejaVuSans-32"/>
     <use x="589.648438" xlink:href="#DejaVuSans-49"/>
    </g>
   </g>
   <g id="legend_1">
    <g id="patch_295">
     <path d="M 525.4 299.719063 
L 563.7625 299.719063 
Q 565.7625 299.719063 565.7625 297.719063 
L 565.7625 284.040937 
Q 565.7625 282.040937 563.7625 282.040937 
L 525.4 282.040937 
Q 523.4 282.040937 523.4 284.040937 
L 523.4 297.719063 
Q 523.4 299.719063 525.4 299.719063 
z
" style="fill:#ffffff;opacity:0.8;stroke:#cccccc;stroke-linejoin:miter;"/>
    </g>
    <g id="patch_296">
     <path d="M 527.4 293.639375 
L 547.4 293.639375 
L 547.4 286.639375 
L 527.4 286.639375 
z
" style="fill:#1f77b4;opacity:0.4;"/>
    </g>
    <g id="text_20">
     <!-- 1 -->
     <g transform="translate(555.4 293.639375)scale(0.1 -0.1)">
      <use xlink:href="#DejaVuSans-49"/>
     </g>
    </g>
   </g>
  </g>
 </g>
 <defs>
  <clipPath id="pc5c63559a1">
   <rect height="443.52" width="446.4" x="72" y="69.12"/>
  </clipPath>
 </defs>
</svg>
